ISO-10303-21;
HEADER;
FILE_DESCRIPTION(('STEP AP214'),'1');
FILE_NAME('96f7640_414026-3.stp','2017-09-15T12:54:36',('TraceParts'),('TraceParts S.A.'),'Spatial InterOp 3D',' ',' ');
FILE_SCHEMA(('automotive_design'));
ENDSEC;
DATA;
#1=PRODUCT_DEFINITION_CONTEXT('',#9,'design');
#2=APPLICATION_PROTOCOL_DEFINITION('INTERNATIONAL STANDARD','automotive_design',1994,#9);
#3=PRODUCT_CATEGORY_RELATIONSHIP('NONE','NONE',#10,#11);
#4=SHAPE_DEFINITION_REPRESENTATION(#12,#13);
#5= (GEOMETRIC_REPRESENTATION_CONTEXT(3)GLOBAL_UNCERTAINTY_ASSIGNED_CONTEXT((#16))GLOBAL_UNIT_ASSIGNED_CONTEXT((#18,#19,#20))REPRESENTATION_CONTEXT('NONE','WORKSPACE'));
#9=APPLICATION_CONTEXT(' ');
#10=PRODUCT_CATEGORY('part','NONE');
#11=PRODUCT_RELATED_PRODUCT_CATEGORY('detail',' ',(#22));
#12=PRODUCT_DEFINITION_SHAPE('NONE','NONE',#23);
#13=ADVANCED_BREP_SHAPE_REPRESENTATION('96f7640_414026-3',(#24,#25),#5);
#16=UNCERTAINTY_MEASURE_WITH_UNIT(LENGTH_MEASURE(1.0E-006),#18,'','');
#18= (CONVERSION_BASED_UNIT('MILLIMETRE',#28)LENGTH_UNIT()NAMED_UNIT(#31));
#19= (NAMED_UNIT(#33)PLANE_ANGLE_UNIT()SI_UNIT($,.RADIAN.));
#20= (NAMED_UNIT(#33)SOLID_ANGLE_UNIT()SI_UNIT($,.STERADIAN.));
#22=PRODUCT('96f7640_414026-3','96f7640_414026-3','PART-96f7640_414026-3-DESC',(#39));
#23=PRODUCT_DEFINITION('NONE','NONE',#40,#1);
#24=MANIFOLD_SOLID_BREP('96f7640_414026-3',#41);
#25=AXIS2_PLACEMENT_3D('',#42,#43,#44);
#28=LENGTH_MEASURE_WITH_UNIT(LENGTH_MEASURE(1.0),#45);
#31=DIMENSIONAL_EXPONENTS(1.0,0.0,0.0,0.0,0.0,0.0,0.0);
#33=DIMENSIONAL_EXPONENTS(0.0,0.0,0.0,0.0,0.0,0.0,0.0);
#39=PRODUCT_CONTEXT('',#9,'mechanical');
#40=PRODUCT_DEFINITION_FORMATION_WITH_SPECIFIED_SOURCE(' ','NONE',#22,.NOT_KNOWN.);
#41=CLOSED_SHELL('',(#46,#47,#48,#49,#50,#51,#52,#53,#54,#55,#56,#57,#58,#59,#60,#61,#62,#63,#64,#65,#66,#67,#68,#69,#70,#71,#72,#73,#74,#75,#76,#77,#78,#79,#80,#81,#82,#83,#84,#85,#86,#87,#88,#89,#90,#91,#92,#93,#94,#95,#96,#97,#98,#99,#100,#101,#102,#103,#104,#105,#106,#107,#108,#109,#110,#111,#112,#113,#114,#115,#116,#117,#118,#119,#120,#121,#122,#123,#124));
#42=CARTESIAN_POINT('',(0.0,0.0,0.0));
#43=DIRECTION('',(0.0,0.0,1.0));
#44=DIRECTION('',(1.0,0.0,0.0));
#45= (NAMED_UNIT(#31)LENGTH_UNIT()SI_UNIT(.MILLI.,.METRE.));
#46=ADVANCED_FACE('',(#126),#127,.F.);
#47=ADVANCED_FACE('',(#128),#129,.F.);
#48=ADVANCED_FACE('',(#130,#131),#132,.T.);
#49=ADVANCED_FACE('',(#133),#134,.T.);
#50=ADVANCED_FACE('',(#135),#136,.T.);
#51=ADVANCED_FACE('',(#137),#138,.T.);
#52=ADVANCED_FACE('',(#139),#140,.T.);
#53=ADVANCED_FACE('',(#141),#142,.T.);
#54=ADVANCED_FACE('',(#143),#144,.T.);
#55=ADVANCED_FACE('',(#145),#146,.T.);
#56=ADVANCED_FACE('',(#147),#148,.T.);
#57=ADVANCED_FACE('',(#149),#150,.T.);
#58=ADVANCED_FACE('',(#151),#152,.T.);
#59=ADVANCED_FACE('',(#153),#154,.T.);
#60=ADVANCED_FACE('',(#155),#156,.T.);
#61=ADVANCED_FACE('',(#157,#158),#159,.T.);
#62=ADVANCED_FACE('',(#160),#161,.T.);
#63=ADVANCED_FACE('',(#162),#163,.F.);
#64=ADVANCED_FACE('',(#164),#165,.F.);
#65=ADVANCED_FACE('',(#166),#167,.F.);
#66=ADVANCED_FACE('',(#168),#169,.T.);
#67=ADVANCED_FACE('',(#170,#171),#172,.T.);
#68=ADVANCED_FACE('',(#173,#174),#175,.T.);
#69=ADVANCED_FACE('',(#176,#177),#178,.T.);
#70=ADVANCED_FACE('',(#179,#180),#181,.T.);
#71=ADVANCED_FACE('',(#182,#183),#184,.T.);
#72=ADVANCED_FACE('',(#185,#186),#187,.T.);
#73=ADVANCED_FACE('',(#188),#189,.T.);
#74=ADVANCED_FACE('',(#190),#191,.T.);
#75=ADVANCED_FACE('',(#192),#193,.T.);
#76=ADVANCED_FACE('',(#194),#195,.T.);
#77=ADVANCED_FACE('',(#196),#197,.T.);
#78=ADVANCED_FACE('',(#198),#199,.T.);
#79=ADVANCED_FACE('',(#200),#201,.T.);
#80=ADVANCED_FACE('',(#202),#203,.T.);
#81=ADVANCED_FACE('',(#204),#205,.T.);
#82=ADVANCED_FACE('',(#206),#207,.T.);
#83=ADVANCED_FACE('',(#208),#209,.F.);
#84=ADVANCED_FACE('',(#210),#211,.F.);
#85=ADVANCED_FACE('',(#212,#213),#214,.T.);
#86=ADVANCED_FACE('',(#215),#216,.T.);
#87=ADVANCED_FACE('',(#217),#218,.T.);
#88=ADVANCED_FACE('',(#219),#220,.T.);
#89=ADVANCED_FACE('',(#221),#222,.T.);
#90=ADVANCED_FACE('',(#223),#224,.F.);
#91=ADVANCED_FACE('',(#225),#226,.F.);
#92=ADVANCED_FACE('',(#227),#228,.F.);
#93=ADVANCED_FACE('',(#229),#230,.T.);
#94=ADVANCED_FACE('',(#231),#232,.T.);
#95=ADVANCED_FACE('',(#233),#234,.T.);
#96=ADVANCED_FACE('',(#235),#236,.T.);
#97=ADVANCED_FACE('',(#237),#238,.T.);
#98=ADVANCED_FACE('',(#239),#240,.T.);
#99=ADVANCED_FACE('',(#241),#242,.T.);
#100=ADVANCED_FACE('',(#243),#244,.T.);
#101=ADVANCED_FACE('',(#245),#246,.T.);
#102=ADVANCED_FACE('',(#247),#248,.T.);
#103=ADVANCED_FACE('',(#249),#250,.T.);
#104=ADVANCED_FACE('',(#251),#252,.T.);
#105=ADVANCED_FACE('',(#253),#254,.T.);
#106=ADVANCED_FACE('',(#255),#256,.T.);
#107=ADVANCED_FACE('',(#257),#258,.T.);
#108=ADVANCED_FACE('',(#259),#260,.T.);
#109=ADVANCED_FACE('',(#261),#262,.T.);
#110=ADVANCED_FACE('',(#263),#264,.T.);
#111=ADVANCED_FACE('',(#265),#266,.T.);
#112=ADVANCED_FACE('',(#267),#268,.T.);
#113=ADVANCED_FACE('',(#269),#270,.T.);
#114=ADVANCED_FACE('',(#271),#272,.T.);
#115=ADVANCED_FACE('',(#273),#274,.T.);
#116=ADVANCED_FACE('',(#275,#276),#277,.T.);
#117=ADVANCED_FACE('',(#278),#279,.F.);
#118=ADVANCED_FACE('',(#280),#281,.F.);
#119=ADVANCED_FACE('',(#282,#283),#284,.T.);
#120=ADVANCED_FACE('',(#285),#286,.T.);
#121=ADVANCED_FACE('',(#287),#288,.T.);
#122=ADVANCED_FACE('',(#289),#290,.T.);
#123=ADVANCED_FACE('',(#291),#292,.T.);
#124=ADVANCED_FACE('',(#293),#294,.T.);
#126=FACE_OUTER_BOUND('',#295,.T.);
#127=CYLINDRICAL_SURFACE('',#296,1.3843);
#128=FACE_OUTER_BOUND('',#297,.T.);
#129=CYLINDRICAL_SURFACE('',#298,1.3843);
#130=FACE_OUTER_BOUND('',#299,.T.);
#131=FACE_BOUND('',#300,.T.);
#132=PLANE('',#301);
#133=FACE_OUTER_BOUND('',#302,.T.);
#134=CONICAL_SURFACE('',#303,1.74625,0.5235987755982);
#135=FACE_OUTER_BOUND('',#304,.T.);
#136=CONICAL_SURFACE('',#305,1.74625,0.5235987755982);
#137=FACE_OUTER_BOUND('',#306,.T.);
#138=CYLINDRICAL_SURFACE('',#307,1.8415);
#139=FACE_OUTER_BOUND('',#308,.T.);
#140=CYLINDRICAL_SURFACE('',#309,1.8415);
#141=FACE_OUTER_BOUND('',#310,.T.);
#142=CONICAL_SURFACE('',#311,1.7526,0.688924388214141);
#143=FACE_OUTER_BOUND('',#312,.T.);
#144=CONICAL_SURFACE('',#313,1.7526,0.688924388214141);
#145=FACE_OUTER_BOUND('',#314,.T.);
#146=CYLINDRICAL_SURFACE('',#315,1.6637);
#147=FACE_OUTER_BOUND('',#316,.T.);
#148=CYLINDRICAL_SURFACE('',#317,1.6637);
#149=FACE_OUTER_BOUND('',#318,.T.);
#150=CONICAL_SURFACE('',#319,1.7526,0.688924388214141);
#151=FACE_OUTER_BOUND('',#320,.T.);
#152=CONICAL_SURFACE('',#321,1.7526,0.688924388214141);
#153=FACE_OUTER_BOUND('',#322,.T.);
#154=CYLINDRICAL_SURFACE('',#323,1.8415);
#155=FACE_OUTER_BOUND('',#324,.T.);
#156=CYLINDRICAL_SURFACE('',#325,1.8415);
#157=FACE_OUTER_BOUND('',#326,.T.);
#158=FACE_BOUND('',#327,.T.);
#159=PLANE('',#328);
#160=FACE_OUTER_BOUND('',#329,.T.);
#161=CYLINDRICAL_SURFACE('',#330,3.175);
#162=FACE_OUTER_BOUND('',#331,.T.);
#163=PLANE('',#332);
#164=FACE_OUTER_BOUND('',#333,.T.);
#165=PLANE('',#334);
#166=FACE_OUTER_BOUND('',#335,.T.);
#167=PLANE('',#336);
#168=FACE_OUTER_BOUND('',#337,.T.);
#169=PLANE('',#338);
#170=FACE_OUTER_BOUND('',#339,.T.);
#171=FACE_BOUND('',#340,.T.);
#172=PLANE('',#341);
#173=FACE_OUTER_BOUND('',#342,.T.);
#174=FACE_BOUND('',#343,.T.);
#175=PLANE('',#344);
#176=FACE_OUTER_BOUND('',#345,.T.);
#177=FACE_BOUND('',#346,.T.);
#178=PLANE('',#347);
#179=FACE_OUTER_BOUND('',#348,.T.);
#180=FACE_BOUND('',#349,.T.);
#181=PLANE('',#350);
#182=FACE_OUTER_BOUND('',#351,.T.);
#183=FACE_BOUND('',#352,.T.);
#184=PLANE('',#353);
#185=FACE_OUTER_BOUND('',#354,.T.);
#186=FACE_BOUND('',#355,.T.);
#187=PLANE('',#356);
#188=FACE_OUTER_BOUND('',#357,.T.);
#189=PLANE('',#358);
#190=FACE_OUTER_BOUND('',#359,.T.);
#191=PLANE('',#360);
#192=FACE_OUTER_BOUND('',#361,.T.);
#193=PLANE('',#362);
#194=FACE_OUTER_BOUND('',#363,.T.);
#195=PLANE('',#364);
#196=FACE_OUTER_BOUND('',#365,.T.);
#197=PLANE('',#366);
#198=FACE_OUTER_BOUND('',#367,.T.);
#199=PLANE('',#368);
#200=FACE_OUTER_BOUND('',#369,.T.);
#201=PLANE('',#370);
#202=FACE_OUTER_BOUND('',#371,.T.);
#203=PLANE('',#372);
#204=FACE_OUTER_BOUND('',#373,.T.);
#205=PLANE('',#374);
#206=FACE_OUTER_BOUND('',#375,.T.);
#207=PLANE('',#376);
#208=FACE_OUTER_BOUND('',#377,.T.);
#209=CYLINDRICAL_SURFACE('',#378,1.651);
#210=FACE_OUTER_BOUND('',#379,.T.);
#211=CYLINDRICAL_SURFACE('',#380,1.651);
#212=FACE_OUTER_BOUND('',#381,.T.);
#213=FACE_BOUND('',#382,.T.);
#214=PLANE('',#383);
#215=FACE_OUTER_BOUND('',#384,.T.);
#216=CYLINDRICAL_SURFACE('',#385,0.4826);
#217=FACE_OUTER_BOUND('',#386,.T.);
#218=CYLINDRICAL_SURFACE('',#387,0.4826);
#219=FACE_OUTER_BOUND('',#388,.T.);
#220=CONICAL_SURFACE('',#389,0.3556,0.7853981633973);
#221=FACE_OUTER_BOUND('',#390,.T.);
#222=CONICAL_SURFACE('',#391,0.3556,0.7853981633973);
#223=FACE_OUTER_BOUND('',#392,.T.);
#224=PLANE('',#393);
#225=FACE_OUTER_BOUND('',#394,.T.);
#226=CYLINDRICAL_SURFACE('',#395,2.8321);
#227=FACE_OUTER_BOUND('',#396,.T.);
#228=CYLINDRICAL_SURFACE('',#397,2.8321);
#229=FACE_OUTER_BOUND('',#398,.T.);
#230=SPHERICAL_SURFACE('',#399,8.14847875);
#231=FACE_OUTER_BOUND('',#400,.T.);
#232=SPHERICAL_SURFACE('',#401,8.14847875);
#233=FACE_OUTER_BOUND('',#402,.T.);
#234=PLANE('',#403);
#235=FACE_OUTER_BOUND('',#404,.T.);
#236=PLANE('',#405);
#237=FACE_OUTER_BOUND('',#406,.T.);
#238=PLANE('',#407);
#239=FACE_OUTER_BOUND('',#408,.T.);
#240=PLANE('',#409);
#241=FACE_OUTER_BOUND('',#410,.T.);
#242=PLANE('',#411);
#243=FACE_OUTER_BOUND('',#412,.T.);
#244=PLANE('',#413);
#245=FACE_OUTER_BOUND('',#414,.T.);
#246=PLANE('',#415);
#247=FACE_OUTER_BOUND('',#416,.T.);
#248=PLANE('',#417);
#249=FACE_OUTER_BOUND('',#418,.T.);
#250=PLANE('',#419);
#251=FACE_OUTER_BOUND('',#420,.T.);
#252=PLANE('',#421);
#253=FACE_OUTER_BOUND('',#422,.T.);
#254=PLANE('',#423);
#255=FACE_OUTER_BOUND('',#424,.T.);
#256=PLANE('',#425);
#257=FACE_OUTER_BOUND('',#426,.T.);
#258=PLANE('',#427);
#259=FACE_OUTER_BOUND('',#428,.T.);
#260=PLANE('',#429);
#261=FACE_OUTER_BOUND('',#430,.T.);
#262=PLANE('',#431);
#263=FACE_OUTER_BOUND('',#432,.T.);
#264=PLANE('',#433);
#265=FACE_OUTER_BOUND('',#434,.T.);
#266=PLANE('',#435);
#267=FACE_OUTER_BOUND('',#436,.T.);
#268=PLANE('',#437);
#269=FACE_OUTER_BOUND('',#438,.T.);
#270=PLANE('',#439);
#271=FACE_OUTER_BOUND('',#440,.T.);
#272=PLANE('',#441);
#273=FACE_OUTER_BOUND('',#442,.T.);
#274=CYLINDRICAL_SURFACE('',#443,3.175);
#275=FACE_OUTER_BOUND('',#444,.T.);
#276=FACE_BOUND('',#445,.T.);
#277=PLANE('',#446);
#278=FACE_OUTER_BOUND('',#447,.T.);
#279=CYLINDRICAL_SURFACE('',#448,1.0668);
#280=FACE_OUTER_BOUND('',#449,.T.);
#281=CYLINDRICAL_SURFACE('',#450,1.0668);
#282=FACE_OUTER_BOUND('',#451,.T.);
#283=FACE_BOUND('',#452,.T.);
#284=PLANE('',#453);
#285=FACE_OUTER_BOUND('',#454,.T.);
#286=CYLINDRICAL_SURFACE('',#455,0.2539999999999);
#287=FACE_OUTER_BOUND('',#456,.T.);
#288=CYLINDRICAL_SURFACE('',#457,0.2539999999999);
#289=FACE_OUTER_BOUND('',#458,.T.);
#290=CONICAL_SURFACE('',#459,0.1905,0.19739555984984);
#291=FACE_OUTER_BOUND('',#460,.T.);
#292=CONICAL_SURFACE('',#461,0.1905,0.19739555984984);
#293=FACE_OUTER_BOUND('',#462,.T.);
#294=PLANE('',#463);
#295=EDGE_LOOP('',(#464,#465,#466,#467));
#296=AXIS2_PLACEMENT_3D('',#468,#469,#470);
#297=EDGE_LOOP('',(#471,#472,#473,#474));
#298=AXIS2_PLACEMENT_3D('',#475,#476,#477);
#299=EDGE_LOOP('',(#478,#479));
#300=EDGE_LOOP('',(#480,#481));
#301=AXIS2_PLACEMENT_3D('',#482,#483,#484);
#302=EDGE_LOOP('',(#485,#486,#487,#488));
#303=AXIS2_PLACEMENT_3D('',#489,#490,#491);
#304=EDGE_LOOP('',(#492,#493,#494,#495));
#305=AXIS2_PLACEMENT_3D('',#496,#497,#498);
#306=EDGE_LOOP('',(#499,#500,#501,#502));
#307=AXIS2_PLACEMENT_3D('',#503,#504,#505);
#308=EDGE_LOOP('',(#506,#507,#508,#509));
#309=AXIS2_PLACEMENT_3D('',#510,#511,#512);
#310=EDGE_LOOP('',(#513,#514,#515,#516));
#311=AXIS2_PLACEMENT_3D('',#517,#518,#519);
#312=EDGE_LOOP('',(#520,#521,#522,#523));
#313=AXIS2_PLACEMENT_3D('',#524,#525,#526);
#314=EDGE_LOOP('',(#527,#528,#529,#530));
#315=AXIS2_PLACEMENT_3D('',#531,#532,#533);
#316=EDGE_LOOP('',(#534,#535,#536,#537));
#317=AXIS2_PLACEMENT_3D('',#538,#539,#540);
#318=EDGE_LOOP('',(#541,#542,#543,#544));
#319=AXIS2_PLACEMENT_3D('',#545,#546,#547);
#320=EDGE_LOOP('',(#548,#549,#550,#551));
#321=AXIS2_PLACEMENT_3D('',#552,#553,#554);
#322=EDGE_LOOP('',(#555,#556,#557,#558));
#323=AXIS2_PLACEMENT_3D('',#559,#560,#561);
#324=EDGE_LOOP('',(#562,#563,#564,#565));
#325=AXIS2_PLACEMENT_3D('',#566,#567,#568);
#326=EDGE_LOOP('',(#569,#570));
#327=EDGE_LOOP('',(#571,#572));
#328=AXIS2_PLACEMENT_3D('',#573,#574,#575);
#329=EDGE_LOOP('',(#576,#577,#578,#579,#580));
#330=AXIS2_PLACEMENT_3D('',#581,#582,#583);
#331=EDGE_LOOP('',(#584,#585,#586));
#332=AXIS2_PLACEMENT_3D('',#587,#588,#589);
#333=EDGE_LOOP('',(#590,#591,#592));
#334=AXIS2_PLACEMENT_3D('',#593,#594,#595);
#335=EDGE_LOOP('',(#596,#597,#598,#599,#600,#601,#602,#603,#604));
#336=AXIS2_PLACEMENT_3D('',#605,#606,#607);
#337=EDGE_LOOP('',(#608,#609,#610,#611,#612,#613,#614,#615,#616));
#338=AXIS2_PLACEMENT_3D('',#617,#618,#619);
#339=EDGE_LOOP('',(#620,#621,#622,#623));
#340=EDGE_LOOP('',(#624,#625,#626,#627));
#341=AXIS2_PLACEMENT_3D('',#628,#629,#630);
#342=EDGE_LOOP('',(#631,#632,#633,#634));
#343=EDGE_LOOP('',(#635,#636,#637,#638));
#344=AXIS2_PLACEMENT_3D('',#639,#640,#641);
#345=EDGE_LOOP('',(#642,#643,#644,#645));
#346=EDGE_LOOP('',(#646,#647,#648,#649));
#347=AXIS2_PLACEMENT_3D('',#650,#651,#652);
#348=EDGE_LOOP('',(#653,#654,#655,#656));
#349=EDGE_LOOP('',(#657,#658,#659,#660));
#350=AXIS2_PLACEMENT_3D('',#661,#662,#663);
#351=EDGE_LOOP('',(#664,#665,#666,#667,#668,#669,#670,#671));
#352=EDGE_LOOP('',(#672,#673));
#353=AXIS2_PLACEMENT_3D('',#674,#675,#676);
#354=EDGE_LOOP('',(#677,#678,#679,#680,#681,#682,#683,#684,#685,#686,#687,#688));
#355=EDGE_LOOP('',(#689,#690));
#356=AXIS2_PLACEMENT_3D('',#691,#692,#693);
#357=EDGE_LOOP('',(#694,#695,#696,#697));
#358=AXIS2_PLACEMENT_3D('',#698,#699,#700);
#359=EDGE_LOOP('',(#701,#702,#703,#704));
#360=AXIS2_PLACEMENT_3D('',#705,#706,#707);
#361=EDGE_LOOP('',(#708,#709,#710,#711));
#362=AXIS2_PLACEMENT_3D('',#712,#713,#714);
#363=EDGE_LOOP('',(#715,#716,#717,#718));
#364=AXIS2_PLACEMENT_3D('',#719,#720,#721);
#365=EDGE_LOOP('',(#722,#723,#724,#725));
#366=AXIS2_PLACEMENT_3D('',#726,#727,#728);
#367=EDGE_LOOP('',(#729,#730,#731,#732));
#368=AXIS2_PLACEMENT_3D('',#733,#734,#735);
#369=EDGE_LOOP('',(#736,#737,#738,#739,#740,#741,#742,#743,#744));
#370=AXIS2_PLACEMENT_3D('',#745,#746,#747);
#371=EDGE_LOOP('',(#748,#749,#750,#751,#752));
#372=AXIS2_PLACEMENT_3D('',#753,#754,#755);
#373=EDGE_LOOP('',(#756,#757,#758,#759));
#374=AXIS2_PLACEMENT_3D('',#760,#761,#762);
#375=EDGE_LOOP('',(#763,#764,#765,#766));
#376=AXIS2_PLACEMENT_3D('',#767,#768,#769);
#377=EDGE_LOOP('',(#770,#771,#772,#773));
#378=AXIS2_PLACEMENT_3D('',#774,#775,#776);
#379=EDGE_LOOP('',(#777,#778,#779,#780));
#380=AXIS2_PLACEMENT_3D('',#781,#782,#783);
#381=EDGE_LOOP('',(#784,#785));
#382=EDGE_LOOP('',(#786,#787));
#383=AXIS2_PLACEMENT_3D('',#788,#789,#790);
#384=EDGE_LOOP('',(#791,#792,#793,#794));
#385=AXIS2_PLACEMENT_3D('',#795,#796,#797);
#386=EDGE_LOOP('',(#798,#799,#800,#801));
#387=AXIS2_PLACEMENT_3D('',#802,#803,#804);
#388=EDGE_LOOP('',(#805,#806,#807,#808));
#389=AXIS2_PLACEMENT_3D('',#809,#810,#811);
#390=EDGE_LOOP('',(#812,#813,#814,#815));
#391=AXIS2_PLACEMENT_3D('',#816,#817,#818);
#392=EDGE_LOOP('',(#819,#820));
#393=AXIS2_PLACEMENT_3D('',#821,#822,#823);
#394=EDGE_LOOP('',(#824,#825,#826,#827));
#395=AXIS2_PLACEMENT_3D('',#828,#829,#830);
#396=EDGE_LOOP('',(#831,#832,#833,#834));
#397=AXIS2_PLACEMENT_3D('',#835,#836,#837);
#398=EDGE_LOOP('',(#838,#839,#840));
#399=AXIS2_PLACEMENT_3D('',#841,#842,#843);
#400=EDGE_LOOP('',(#844,#845,#846));
#401=AXIS2_PLACEMENT_3D('',#847,#848,#849);
#402=EDGE_LOOP('',(#850,#851,#852,#853));
#403=AXIS2_PLACEMENT_3D('',#854,#855,#856);
#404=EDGE_LOOP('',(#857,#858,#859,#860));
#405=AXIS2_PLACEMENT_3D('',#861,#862,#863);
#406=EDGE_LOOP('',(#864,#865,#866,#867));
#407=AXIS2_PLACEMENT_3D('',#868,#869,#870);
#408=EDGE_LOOP('',(#871,#872,#873,#874));
#409=AXIS2_PLACEMENT_3D('',#875,#876,#877);
#410=EDGE_LOOP('',(#878,#879,#880,#881));
#411=AXIS2_PLACEMENT_3D('',#882,#883,#884);
#412=EDGE_LOOP('',(#885,#886,#887,#888));
#413=AXIS2_PLACEMENT_3D('',#889,#890,#891);
#414=EDGE_LOOP('',(#892,#893,#894,#895));
#415=AXIS2_PLACEMENT_3D('',#896,#897,#898);
#416=EDGE_LOOP('',(#899,#900,#901,#902));
#417=AXIS2_PLACEMENT_3D('',#903,#904,#905);
#418=EDGE_LOOP('',(#906,#907,#908,#909));
#419=AXIS2_PLACEMENT_3D('',#910,#911,#912);
#420=EDGE_LOOP('',(#913,#914,#915,#916));
#421=AXIS2_PLACEMENT_3D('',#917,#918,#919);
#422=EDGE_LOOP('',(#920,#921,#922,#923));
#423=AXIS2_PLACEMENT_3D('',#924,#925,#926);
#424=EDGE_LOOP('',(#927,#928,#929,#930));
#425=AXIS2_PLACEMENT_3D('',#931,#932,#933);
#426=EDGE_LOOP('',(#934,#935,#936,#937));
#427=AXIS2_PLACEMENT_3D('',#938,#939,#940);
#428=EDGE_LOOP('',(#941,#942,#943,#944));
#429=AXIS2_PLACEMENT_3D('',#945,#946,#947);
#430=EDGE_LOOP('',(#948,#949,#950,#951));
#431=AXIS2_PLACEMENT_3D('',#952,#953,#954);
#432=EDGE_LOOP('',(#955,#956,#957,#958));
#433=AXIS2_PLACEMENT_3D('',#959,#960,#961);
#434=EDGE_LOOP('',(#962,#963,#964,#965));
#435=AXIS2_PLACEMENT_3D('',#966,#967,#968);
#436=EDGE_LOOP('',(#969,#970,#971,#972));
#437=AXIS2_PLACEMENT_3D('',#973,#974,#975);
#438=EDGE_LOOP('',(#976,#977,#978,#979));
#439=AXIS2_PLACEMENT_3D('',#980,#981,#982);
#440=EDGE_LOOP('',(#983,#984,#985,#986));
#441=AXIS2_PLACEMENT_3D('',#987,#988,#989);
#442=EDGE_LOOP('',(#990,#991,#992,#993,#994));
#443=AXIS2_PLACEMENT_3D('',#995,#996,#997);
#444=EDGE_LOOP('',(#998,#999));
#445=EDGE_LOOP('',(#1000,#1001));
#446=AXIS2_PLACEMENT_3D('',#1002,#1003,#1004);
#447=EDGE_LOOP('',(#1005,#1006,#1007,#1008));
#448=AXIS2_PLACEMENT_3D('',#1009,#1010,#1011);
#449=EDGE_LOOP('',(#1012,#1013,#1014,#1015));
#450=AXIS2_PLACEMENT_3D('',#1016,#1017,#1018);
#451=EDGE_LOOP('',(#1019,#1020));
#452=EDGE_LOOP('',(#1021,#1022));
#453=AXIS2_PLACEMENT_3D('',#1023,#1024,#1025);
#454=EDGE_LOOP('',(#1026,#1027,#1028,#1029));
#455=AXIS2_PLACEMENT_3D('',#1030,#1031,#1032);
#456=EDGE_LOOP('',(#1033,#1034,#1035,#1036));
#457=AXIS2_PLACEMENT_3D('',#1037,#1038,#1039);
#458=EDGE_LOOP('',(#1040,#1041,#1042,#1043));
#459=AXIS2_PLACEMENT_3D('',#1044,#1045,#1046);
#460=EDGE_LOOP('',(#1047,#1048,#1049,#1050));
#461=AXIS2_PLACEMENT_3D('',#1051,#1052,#1053);
#462=EDGE_LOOP('',(#1054,#1055));
#463=AXIS2_PLACEMENT_3D('',#1056,#1057,#1058);
#464=ORIENTED_EDGE('',*,*,#1059,.T.);
#465=ORIENTED_EDGE('',*,*,#1060,.T.);
#466=ORIENTED_EDGE('',*,*,#1061,.F.);
#467=ORIENTED_EDGE('',*,*,#1062,.F.);
#468=CARTESIAN_POINT('',(0.0,0.0,-10.72134));
#469=DIRECTION('',(0.0,0.0,-1.0));
#470=DIRECTION('',(0.0,1.0,0.0));
#471=ORIENTED_EDGE('',*,*,#1063,.T.);
#472=ORIENTED_EDGE('',*,*,#1060,.F.);
#473=ORIENTED_EDGE('',*,*,#1064,.F.);
#474=ORIENTED_EDGE('',*,*,#1062,.T.);
#475=CARTESIAN_POINT('',(0.0,0.0,-10.72134));
#476=DIRECTION('',(0.0,0.0,-1.0));
#477=DIRECTION('',(0.0,1.0,0.0));
#478=ORIENTED_EDGE('',*,*,#1065,.F.);
#479=ORIENTED_EDGE('',*,*,#1066,.T.);
#480=ORIENTED_EDGE('',*,*,#1059,.F.);
#481=ORIENTED_EDGE('',*,*,#1064,.T.);
#482=CARTESIAN_POINT('',(0.0,0.0,0.0));
#483=DIRECTION('',(0.0,0.0,1.0));
#484=DIRECTION('',(1.0,-0.0,0.0));
#485=ORIENTED_EDGE('',*,*,#1067,.T.);
#486=ORIENTED_EDGE('',*,*,#1068,.T.);
#487=ORIENTED_EDGE('',*,*,#1066,.F.);
#488=ORIENTED_EDGE('',*,*,#1069,.F.);
#489=CARTESIAN_POINT('',(0.0,0.0,-0.1649778394209));
#490=DIRECTION('',(0.0,-0.0,-1.0));
#491=DIRECTION('',(0.0,-1.0,0.0));
#492=ORIENTED_EDGE('',*,*,#1065,.T.);
#493=ORIENTED_EDGE('',*,*,#1068,.F.);
#494=ORIENTED_EDGE('',*,*,#1070,.F.);
#495=ORIENTED_EDGE('',*,*,#1069,.T.);
#496=CARTESIAN_POINT('',(0.0,0.0,-0.1649778394209));
#497=DIRECTION('',(0.0,-0.0,-1.0));
#498=DIRECTION('',(0.0,-1.0,0.0));
#499=ORIENTED_EDGE('',*,*,#1070,.T.);
#500=ORIENTED_EDGE('',*,*,#1071,.F.);
#501=ORIENTED_EDGE('',*,*,#1072,.F.);
#502=ORIENTED_EDGE('',*,*,#1073,.T.);
#503=CARTESIAN_POINT('',(0.0,0.0,-10.72134));
#504=DIRECTION('',(0.0,0.0,-1.0));
#505=DIRECTION('',(0.0,1.0,0.0));
#506=ORIENTED_EDGE('',*,*,#1074,.T.);
#507=ORIENTED_EDGE('',*,*,#1071,.T.);
#508=ORIENTED_EDGE('',*,*,#1067,.F.);
#509=ORIENTED_EDGE('',*,*,#1073,.F.);
#510=CARTESIAN_POINT('',(0.0,0.0,-10.72134));
#511=DIRECTION('',(0.0,0.0,-1.0));
#512=DIRECTION('',(0.0,1.0,0.0));
#513=ORIENTED_EDGE('',*,*,#1075,.T.);
#514=ORIENTED_EDGE('',*,*,#1076,.T.);
#515=ORIENTED_EDGE('',*,*,#1074,.F.);
#516=ORIENTED_EDGE('',*,*,#1077,.F.);
#517=CARTESIAN_POINT('',(0.0,0.0,-3.16865));
#518=DIRECTION('',(-0.0,-0.0,1.0));
#519=DIRECTION('',(0.0,1.0,0.0));
#520=ORIENTED_EDGE('',*,*,#1072,.T.);
#521=ORIENTED_EDGE('',*,*,#1076,.F.);
#522=ORIENTED_EDGE('',*,*,#1078,.F.);
#523=ORIENTED_EDGE('',*,*,#1077,.T.);
#524=CARTESIAN_POINT('',(0.0,0.0,-3.16865));
#525=DIRECTION('',(-0.0,-0.0,1.0));
#526=DIRECTION('',(0.0,1.0,0.0));
#527=ORIENTED_EDGE('',*,*,#1078,.T.);
#528=ORIENTED_EDGE('',*,*,#1079,.F.);
#529=ORIENTED_EDGE('',*,*,#1080,.F.);
#530=ORIENTED_EDGE('',*,*,#1081,.T.);
#531=CARTESIAN_POINT('',(0.0,0.0,-10.72134));
#532=DIRECTION('',(0.0,0.0,-1.0));
#533=DIRECTION('',(0.0,1.0,0.0));
#534=ORIENTED_EDGE('',*,*,#1082,.T.);
#535=ORIENTED_EDGE('',*,*,#1079,.T.);
#536=ORIENTED_EDGE('',*,*,#1075,.F.);
#537=ORIENTED_EDGE('',*,*,#1081,.F.);
#538=CARTESIAN_POINT('',(0.0,0.0,-10.72134));
#539=DIRECTION('',(0.0,0.0,-1.0));
#540=DIRECTION('',(0.0,1.0,0.0));
#541=ORIENTED_EDGE('',*,*,#1083,.T.);
#542=ORIENTED_EDGE('',*,*,#1084,.T.);
#543=ORIENTED_EDGE('',*,*,#1082,.F.);
#544=ORIENTED_EDGE('',*,*,#1085,.F.);
#545=CARTESIAN_POINT('',(0.0,0.0,-3.74015));
#546=DIRECTION('',(0.0,-0.0,-1.0));
#547=DIRECTION('',(0.0,-1.0,0.0));
#548=ORIENTED_EDGE('',*,*,#1080,.T.);
#549=ORIENTED_EDGE('',*,*,#1084,.F.);
#550=ORIENTED_EDGE('',*,*,#1086,.F.);
#551=ORIENTED_EDGE('',*,*,#1085,.T.);
#552=CARTESIAN_POINT('',(0.0,0.0,-3.74015));
#553=DIRECTION('',(0.0,-0.0,-1.0));
#554=DIRECTION('',(0.0,-1.0,0.0));
#555=ORIENTED_EDGE('',*,*,#1086,.T.);
#556=ORIENTED_EDGE('',*,*,#1087,.F.);
#557=ORIENTED_EDGE('',*,*,#1088,.F.);
#558=ORIENTED_EDGE('',*,*,#1089,.T.);
#559=CARTESIAN_POINT('',(0.0,0.0,-10.72134));
#560=DIRECTION('',(0.0,0.0,-1.0));
#561=DIRECTION('',(0.0,1.0,0.0));
#562=ORIENTED_EDGE('',*,*,#1090,.T.);
#563=ORIENTED_EDGE('',*,*,#1087,.T.);
#564=ORIENTED_EDGE('',*,*,#1083,.F.);
#565=ORIENTED_EDGE('',*,*,#1089,.F.);
#566=CARTESIAN_POINT('',(0.0,0.0,-10.72134));
#567=DIRECTION('',(0.0,0.0,-1.0));
#568=DIRECTION('',(0.0,1.0,0.0));
#569=ORIENTED_EDGE('',*,*,#1091,.F.);
#570=ORIENTED_EDGE('',*,*,#1092,.T.);
#571=ORIENTED_EDGE('',*,*,#1090,.F.);
#572=ORIENTED_EDGE('',*,*,#1088,.T.);
#573=CARTESIAN_POINT('',(0.0,0.0,-6.1468));
#574=DIRECTION('',(0.0,0.0,1.0));
#575=DIRECTION('',(1.0,-0.0,0.0));
#576=ORIENTED_EDGE('',*,*,#1093,.T.);
#577=ORIENTED_EDGE('',*,*,#1094,.T.);
#578=ORIENTED_EDGE('',*,*,#1092,.F.);
#579=ORIENTED_EDGE('',*,*,#1095,.F.);
#580=ORIENTED_EDGE('',*,*,#1096,.T.);
#581=CARTESIAN_POINT('',(0.0,0.0,-10.72134));
#582=DIRECTION('',(0.0,0.0,-1.0));
#583=DIRECTION('',(0.0,1.0,0.0));
#584=ORIENTED_EDGE('',*,*,#1097,.F.);
#585=ORIENTED_EDGE('',*,*,#1098,.F.);
#586=ORIENTED_EDGE('',*,*,#1096,.F.);
#587=CARTESIAN_POINT('',(0.0,0.0,-7.0358));
#588=DIRECTION('',(0.0,0.0,-1.0));
#589=DIRECTION('',(0.0,-1.0,0.0));
#590=ORIENTED_EDGE('',*,*,#1099,.F.);
#591=ORIENTED_EDGE('',*,*,#1100,.F.);
#592=ORIENTED_EDGE('',*,*,#1101,.F.);
#593=CARTESIAN_POINT('',(0.0,0.0,-7.0358));
#594=DIRECTION('',(0.0,0.0,-1.0));
#595=DIRECTION('',(0.0,-1.0,0.0));
#596=ORIENTED_EDGE('',*,*,#1102,.F.);
#597=ORIENTED_EDGE('',*,*,#1093,.F.);
#598=ORIENTED_EDGE('',*,*,#1103,.F.);
#599=ORIENTED_EDGE('',*,*,#1104,.F.);
#600=ORIENTED_EDGE('',*,*,#1105,.F.);
#601=ORIENTED_EDGE('',*,*,#1106,.F.);
#602=ORIENTED_EDGE('',*,*,#1107,.T.);
#603=ORIENTED_EDGE('',*,*,#1108,.F.);
#604=ORIENTED_EDGE('',*,*,#1109,.F.);
#605=CARTESIAN_POINT('',(0.0,0.0,-7.0358));
#606=DIRECTION('',(0.0,0.0,-1.0));
#607=DIRECTION('',(0.0,-1.0,0.0));
#608=ORIENTED_EDGE('',*,*,#1098,.T.);
#609=ORIENTED_EDGE('',*,*,#1110,.T.);
#610=ORIENTED_EDGE('',*,*,#1111,.F.);
#611=ORIENTED_EDGE('',*,*,#1112,.F.);
#612=ORIENTED_EDGE('',*,*,#1113,.F.);
#613=ORIENTED_EDGE('',*,*,#1114,.F.);
#614=ORIENTED_EDGE('',*,*,#1115,.T.);
#615=ORIENTED_EDGE('',*,*,#1116,.F.);
#616=ORIENTED_EDGE('',*,*,#1103,.T.);
#617=CARTESIAN_POINT('',(-3.175,-4.9022,-7.0358));
#618=DIRECTION('',(-1.0,0.0,0.0));
#619=DIRECTION('',(0.0,0.0,1.0));
#620=ORIENTED_EDGE('',*,*,#1117,.T.);
#621=ORIENTED_EDGE('',*,*,#1118,.T.);
#622=ORIENTED_EDGE('',*,*,#1112,.T.);
#623=ORIENTED_EDGE('',*,*,#1119,.T.);
#624=ORIENTED_EDGE('',*,*,#1120,.F.);
#625=ORIENTED_EDGE('',*,*,#1121,.F.);
#626=ORIENTED_EDGE('',*,*,#1122,.F.);
#627=ORIENTED_EDGE('',*,*,#1123,.F.);
#628=CARTESIAN_POINT('',(0.0,-5.5372,-7.0358));
#629=DIRECTION('',(0.0,-1.0,0.0));
#630=DIRECTION('',(0.0,0.0,-1.0));
#631=ORIENTED_EDGE('',*,*,#1124,.T.);
#632=ORIENTED_EDGE('',*,*,#1125,.T.);
#633=ORIENTED_EDGE('',*,*,#1126,.T.);
#634=ORIENTED_EDGE('',*,*,#1127,.T.);
#635=ORIENTED_EDGE('',*,*,#1128,.F.);
#636=ORIENTED_EDGE('',*,*,#1129,.F.);
#637=ORIENTED_EDGE('',*,*,#1130,.F.);
#638=ORIENTED_EDGE('',*,*,#1131,.F.);
#639=CARTESIAN_POINT('',(0.0,-5.5372,-7.0358));
#640=DIRECTION('',(0.0,-1.0,0.0));
#641=DIRECTION('',(0.0,0.0,-1.0));
#642=ORIENTED_EDGE('',*,*,#1132,.T.);
#643=ORIENTED_EDGE('',*,*,#1133,.T.);
#644=ORIENTED_EDGE('',*,*,#1104,.T.);
#645=ORIENTED_EDGE('',*,*,#1116,.T.);
#646=ORIENTED_EDGE('',*,*,#1134,.F.);
#647=ORIENTED_EDGE('',*,*,#1135,.F.);
#648=ORIENTED_EDGE('',*,*,#1136,.F.);
#649=ORIENTED_EDGE('',*,*,#1137,.F.);
#650=CARTESIAN_POINT('',(0.0,-5.5372,-7.0358));
#651=DIRECTION('',(0.0,-1.0,0.0));
#652=DIRECTION('',(0.0,0.0,-1.0));
#653=ORIENTED_EDGE('',*,*,#1138,.T.);
#654=ORIENTED_EDGE('',*,*,#1139,.T.);
#655=ORIENTED_EDGE('',*,*,#1140,.T.);
#656=ORIENTED_EDGE('',*,*,#1108,.T.);
#657=ORIENTED_EDGE('',*,*,#1141,.F.);
#658=ORIENTED_EDGE('',*,*,#1142,.F.);
#659=ORIENTED_EDGE('',*,*,#1143,.F.);
#660=ORIENTED_EDGE('',*,*,#1144,.F.);
#661=CARTESIAN_POINT('',(0.0,-5.5372,-7.0358));
#662=DIRECTION('',(0.0,-1.0,0.0));
#663=DIRECTION('',(0.0,0.0,-1.0));
#664=ORIENTED_EDGE('',*,*,#1145,.T.);
#665=ORIENTED_EDGE('',*,*,#1119,.F.);
#666=ORIENTED_EDGE('',*,*,#1111,.T.);
#667=ORIENTED_EDGE('',*,*,#1146,.T.);
#668=ORIENTED_EDGE('',*,*,#1147,.T.);
#669=ORIENTED_EDGE('',*,*,#1126,.F.);
#670=ORIENTED_EDGE('',*,*,#1148,.F.);
#671=ORIENTED_EDGE('',*,*,#1149,.T.);
#672=ORIENTED_EDGE('',*,*,#1150,.T.);
#673=ORIENTED_EDGE('',*,*,#1151,.T.);
#674=CARTESIAN_POINT('',(0.0,0.0,-13.3858));
#675=DIRECTION('',(0.0,0.0,-1.0));
#676=DIRECTION('',(0.0,-1.0,0.0));
#677=ORIENTED_EDGE('',*,*,#1149,.F.);
#678=ORIENTED_EDGE('',*,*,#1152,.T.);
#679=ORIENTED_EDGE('',*,*,#1153,.F.);
#680=ORIENTED_EDGE('',*,*,#1154,.F.);
#681=ORIENTED_EDGE('',*,*,#1155,.T.);
#682=ORIENTED_EDGE('',*,*,#1156,.F.);
#683=ORIENTED_EDGE('',*,*,#1106,.T.);
#684=ORIENTED_EDGE('',*,*,#1157,.T.);
#685=ORIENTED_EDGE('',*,*,#1158,.F.);
#686=ORIENTED_EDGE('',*,*,#1114,.T.);
#687=ORIENTED_EDGE('',*,*,#1159,.T.);
#688=ORIENTED_EDGE('',*,*,#1160,.F.);
#689=ORIENTED_EDGE('',*,*,#1161,.F.);
#690=ORIENTED_EDGE('',*,*,#1162,.F.);
#691=CARTESIAN_POINT('',(3.175,-4.9022,-7.0358));
#692=DIRECTION('',(0.0,-1.0,0.0));
#693=DIRECTION('',(0.0,0.0,-1.0));
#694=ORIENTED_EDGE('',*,*,#1163,.T.);
#695=ORIENTED_EDGE('',*,*,#1117,.F.);
#696=ORIENTED_EDGE('',*,*,#1145,.F.);
#697=ORIENTED_EDGE('',*,*,#1160,.T.);
#698=CARTESIAN_POINT('',(-1.5494,-4.9022,-13.3858));
#699=DIRECTION('',(1.0,0.0,0.0));
#700=DIRECTION('',(0.0,1.0,-0.0));
#701=ORIENTED_EDGE('',*,*,#1113,.T.);
#702=ORIENTED_EDGE('',*,*,#1118,.F.);
#703=ORIENTED_EDGE('',*,*,#1163,.F.);
#704=ORIENTED_EDGE('',*,*,#1159,.F.);
#705=CARTESIAN_POINT('',(-1.5494,-4.9022,-11.7602));
#706=DIRECTION('',(0.0,0.0,1.0));
#707=DIRECTION('',(1.0,-0.0,0.0));
#708=ORIENTED_EDGE('',*,*,#1164,.T.);
#709=ORIENTED_EDGE('',*,*,#1132,.F.);
#710=ORIENTED_EDGE('',*,*,#1115,.F.);
#711=ORIENTED_EDGE('',*,*,#1158,.T.);
#712=CARTESIAN_POINT('',(-3.175,-4.9022,-8.6614));
#713=DIRECTION('',(0.0,0.0,-1.0));
#714=DIRECTION('',(0.0,-1.0,0.0));
#715=ORIENTED_EDGE('',*,*,#1105,.T.);
#716=ORIENTED_EDGE('',*,*,#1133,.F.);
#717=ORIENTED_EDGE('',*,*,#1164,.F.);
#718=ORIENTED_EDGE('',*,*,#1157,.F.);
#719=CARTESIAN_POINT('',(-1.5494,-4.9022,-8.6614));
#720=DIRECTION('',(1.0,0.0,0.0));
#721=DIRECTION('',(0.0,1.0,-0.0));
#722=ORIENTED_EDGE('',*,*,#1165,.T.);
#723=ORIENTED_EDGE('',*,*,#1138,.F.);
#724=ORIENTED_EDGE('',*,*,#1107,.F.);
#725=ORIENTED_EDGE('',*,*,#1156,.T.);
#726=CARTESIAN_POINT('',(1.5494,-4.9022,-7.0358));
#727=DIRECTION('',(-1.0,0.0,0.0));
#728=DIRECTION('',(0.0,0.0,1.0));
#729=ORIENTED_EDGE('',*,*,#1166,.T.);
#730=ORIENTED_EDGE('',*,*,#1139,.F.);
#731=ORIENTED_EDGE('',*,*,#1165,.F.);
#732=ORIENTED_EDGE('',*,*,#1155,.F.);
#733=CARTESIAN_POINT('',(1.5494,-4.9022,-8.6614));
#734=DIRECTION('',(0.0,0.0,-1.0));
#735=DIRECTION('',(0.0,-1.0,0.0));
#736=ORIENTED_EDGE('',*,*,#1167,.T.);
#737=ORIENTED_EDGE('',*,*,#1127,.F.);
#738=ORIENTED_EDGE('',*,*,#1147,.F.);
#739=ORIENTED_EDGE('',*,*,#1168,.F.);
#740=ORIENTED_EDGE('',*,*,#1099,.T.);
#741=ORIENTED_EDGE('',*,*,#1109,.T.);
#742=ORIENTED_EDGE('',*,*,#1140,.F.);
#743=ORIENTED_EDGE('',*,*,#1166,.F.);
#744=ORIENTED_EDGE('',*,*,#1154,.T.);
#745=CARTESIAN_POINT('',(3.175,3.175,-7.0358));
#746=DIRECTION('',(1.0,0.0,0.0));
#747=DIRECTION('',(0.0,1.0,-0.0));
#748=ORIENTED_EDGE('',*,*,#1100,.T.);
#749=ORIENTED_EDGE('',*,*,#1168,.T.);
#750=ORIENTED_EDGE('',*,*,#1146,.F.);
#751=ORIENTED_EDGE('',*,*,#1110,.F.);
#752=ORIENTED_EDGE('',*,*,#1097,.T.);
#753=CARTESIAN_POINT('',(-3.175,3.175,-7.0358));
#754=DIRECTION('',(0.0,1.0,0.0));
#755=DIRECTION('',(1.0,0.0,-0.0));
#756=ORIENTED_EDGE('',*,*,#1169,.T.);
#757=ORIENTED_EDGE('',*,*,#1124,.F.);
#758=ORIENTED_EDGE('',*,*,#1167,.F.);
#759=ORIENTED_EDGE('',*,*,#1153,.T.);
#760=CARTESIAN_POINT('',(3.175,-4.9022,-11.7602));
#761=DIRECTION('',(0.0,0.0,1.0));
#762=DIRECTION('',(1.0,-0.0,0.0));
#763=ORIENTED_EDGE('',*,*,#1148,.T.);
#764=ORIENTED_EDGE('',*,*,#1125,.F.);
#765=ORIENTED_EDGE('',*,*,#1169,.F.);
#766=ORIENTED_EDGE('',*,*,#1152,.F.);
#767=CARTESIAN_POINT('',(1.5494,-4.9022,-11.7602));
#768=DIRECTION('',(-1.0,0.0,0.0));
#769=DIRECTION('',(0.0,0.0,1.0));
#770=ORIENTED_EDGE('',*,*,#1170,.T.);
#771=ORIENTED_EDGE('',*,*,#1171,.T.);
#772=ORIENTED_EDGE('',*,*,#1172,.F.);
#773=ORIENTED_EDGE('',*,*,#1162,.T.);
#774=CARTESIAN_POINT('',(0.0,-4.1021,-10.2108));
#775=DIRECTION('',(0.0,1.0,-0.0));
#776=DIRECTION('',(0.0,0.0,1.0));
#777=ORIENTED_EDGE('',*,*,#1172,.T.);
#778=ORIENTED_EDGE('',*,*,#1173,.F.);
#779=ORIENTED_EDGE('',*,*,#1170,.F.);
#780=ORIENTED_EDGE('',*,*,#1161,.T.);
#781=CARTESIAN_POINT('',(0.0,-4.1021,-10.2108));
#782=DIRECTION('',(0.0,1.0,-0.0));
#783=DIRECTION('',(0.0,0.0,1.0));
#784=ORIENTED_EDGE('',*,*,#1171,.F.);
#785=ORIENTED_EDGE('',*,*,#1173,.T.);
#786=ORIENTED_EDGE('',*,*,#1174,.T.);
#787=ORIENTED_EDGE('',*,*,#1175,.T.);
#788=CARTESIAN_POINT('',(0.0,-4.8514,-10.2108));
#789=DIRECTION('',(0.0,-1.0,0.0));
#790=DIRECTION('',(0.0,0.0,-1.0));
#791=ORIENTED_EDGE('',*,*,#1176,.T.);
#792=ORIENTED_EDGE('',*,*,#1177,.T.);
#793=ORIENTED_EDGE('',*,*,#1175,.F.);
#794=ORIENTED_EDGE('',*,*,#1178,.F.);
#795=CARTESIAN_POINT('',(0.0,-9.70534,-10.2108));
#796=DIRECTION('',(0.0,-1.0,-0.0));
#797=DIRECTION('',(0.0,0.0,-1.0));
#798=ORIENTED_EDGE('',*,*,#1174,.F.);
#799=ORIENTED_EDGE('',*,*,#1177,.F.);
#800=ORIENTED_EDGE('',*,*,#1179,.F.);
#801=ORIENTED_EDGE('',*,*,#1178,.T.);
#802=CARTESIAN_POINT('',(0.0,-9.70534,-10.2108));
#803=DIRECTION('',(0.0,-1.0,-0.0));
#804=DIRECTION('',(0.0,0.0,-1.0));
#805=ORIENTED_EDGE('',*,*,#1179,.T.);
#806=ORIENTED_EDGE('',*,*,#1180,.F.);
#807=ORIENTED_EDGE('',*,*,#1181,.F.);
#808=ORIENTED_EDGE('',*,*,#1182,.T.);
#809=CARTESIAN_POINT('',(0.0,-9.3472,-10.2108));
#810=DIRECTION('',(-0.0,1.0,0.0));
#811=DIRECTION('',(0.0,0.0,-1.0));
#812=ORIENTED_EDGE('',*,*,#1183,.T.);
#813=ORIENTED_EDGE('',*,*,#1180,.T.);
#814=ORIENTED_EDGE('',*,*,#1176,.F.);
#815=ORIENTED_EDGE('',*,*,#1182,.F.);
#816=CARTESIAN_POINT('',(0.0,-9.3472,-10.2108));
#817=DIRECTION('',(-0.0,1.0,0.0));
#818=DIRECTION('',(0.0,0.0,-1.0));
#819=ORIENTED_EDGE('',*,*,#1183,.F.);
#820=ORIENTED_EDGE('',*,*,#1181,.T.);
#821=CARTESIAN_POINT('',(0.0,-9.4742,-10.2108));
#822=DIRECTION('',(0.0,1.0,0.0));
#823=DIRECTION('',(1.0,0.0,-0.0));
#824=ORIENTED_EDGE('',*,*,#1184,.T.);
#825=ORIENTED_EDGE('',*,*,#1185,.F.);
#826=ORIENTED_EDGE('',*,*,#1186,.F.);
#827=ORIENTED_EDGE('',*,*,#1151,.F.);
#828=CARTESIAN_POINT('',(0.0,0.0,-13.4112));
#829=DIRECTION('',(0.0,0.0,-1.0));
#830=DIRECTION('',(0.0,1.0,0.0));
#831=ORIENTED_EDGE('',*,*,#1186,.T.);
#832=ORIENTED_EDGE('',*,*,#1187,.T.);
#833=ORIENTED_EDGE('',*,*,#1184,.F.);
#834=ORIENTED_EDGE('',*,*,#1150,.F.);
#835=CARTESIAN_POINT('',(0.0,0.0,-13.4112));
#836=DIRECTION('',(0.0,0.0,-1.0));
#837=DIRECTION('',(0.0,1.0,0.0));
#838=ORIENTED_EDGE('',*,*,#1187,.F.);
#839=ORIENTED_EDGE('',*,*,#1188,.F.);
#840=ORIENTED_EDGE('',*,*,#1189,.T.);
#841=CARTESIAN_POINT('',(0.0,0.0,-5.23732125));
#842=DIRECTION('',(0.0,0.0,1.0));
#843=DIRECTION('',(0.0,1.0,0.0));
#844=ORIENTED_EDGE('',*,*,#1188,.T.);
#845=ORIENTED_EDGE('',*,*,#1185,.T.);
#846=ORIENTED_EDGE('',*,*,#1189,.F.);
#847=CARTESIAN_POINT('',(0.0,0.0,-5.23732125));
#848=DIRECTION('',(0.0,0.0,1.0));
#849=DIRECTION('',(0.0,1.0,0.0));
#850=ORIENTED_EDGE('',*,*,#1190,.T.);
#851=ORIENTED_EDGE('',*,*,#1191,.F.);
#852=ORIENTED_EDGE('',*,*,#1192,.F.);
#853=ORIENTED_EDGE('',*,*,#1131,.T.);
#854=CARTESIAN_POINT('',(3.048,-5.5372,-12.2428));
#855=DIRECTION('',(0.0,0.0,1.0));
#856=DIRECTION('',(1.0,-0.0,0.0));
#857=ORIENTED_EDGE('',*,*,#1192,.T.);
#858=ORIENTED_EDGE('',*,*,#1193,.F.);
#859=ORIENTED_EDGE('',*,*,#1194,.F.);
#860=ORIENTED_EDGE('',*,*,#1128,.T.);
#861=CARTESIAN_POINT('',(3.048,-5.5372,-13.2588));
#862=DIRECTION('',(1.0,0.0,0.0));
#863=DIRECTION('',(0.0,1.0,-0.0));
#864=ORIENTED_EDGE('',*,*,#1194,.T.);
#865=ORIENTED_EDGE('',*,*,#1195,.F.);
#866=ORIENTED_EDGE('',*,*,#1196,.F.);
#867=ORIENTED_EDGE('',*,*,#1129,.T.);
#868=CARTESIAN_POINT('',(2.032,-5.5372,-13.2588));
#869=DIRECTION('',(0.0,0.0,-1.0));
#870=DIRECTION('',(0.0,-1.0,0.0));
#871=ORIENTED_EDGE('',*,*,#1196,.T.);
#872=ORIENTED_EDGE('',*,*,#1197,.F.);
#873=ORIENTED_EDGE('',*,*,#1190,.F.);
#874=ORIENTED_EDGE('',*,*,#1130,.T.);
#875=CARTESIAN_POINT('',(2.032,-5.5372,-12.2428));
#876=DIRECTION('',(-1.0,0.0,0.0));
#877=DIRECTION('',(0.0,0.0,1.0));
#878=ORIENTED_EDGE('',*,*,#1197,.T.);
#879=ORIENTED_EDGE('',*,*,#1195,.T.);
#880=ORIENTED_EDGE('',*,*,#1193,.T.);
#881=ORIENTED_EDGE('',*,*,#1191,.T.);
#882=CARTESIAN_POINT('',(0.0,-9.4742,-7.0358));
#883=DIRECTION('',(0.0,-1.0,0.0));
#884=DIRECTION('',(0.0,0.0,-1.0));
#885=ORIENTED_EDGE('',*,*,#1198,.T.);
#886=ORIENTED_EDGE('',*,*,#1199,.T.);
#887=ORIENTED_EDGE('',*,*,#1200,.T.);
#888=ORIENTED_EDGE('',*,*,#1201,.T.);
#889=CARTESIAN_POINT('',(0.0,-9.4742,-7.0358));
#890=DIRECTION('',(0.0,-1.0,0.0));
#891=DIRECTION('',(0.0,0.0,-1.0));
#892=ORIENTED_EDGE('',*,*,#1202,.T.);
#893=ORIENTED_EDGE('',*,*,#1203,.T.);
#894=ORIENTED_EDGE('',*,*,#1204,.T.);
#895=ORIENTED_EDGE('',*,*,#1205,.T.);
#896=CARTESIAN_POINT('',(0.0,-9.4742,-7.0358));
#897=DIRECTION('',(0.0,-1.0,0.0));
#898=DIRECTION('',(0.0,0.0,-1.0));
#899=ORIENTED_EDGE('',*,*,#1206,.T.);
#900=ORIENTED_EDGE('',*,*,#1207,.T.);
#901=ORIENTED_EDGE('',*,*,#1208,.T.);
#902=ORIENTED_EDGE('',*,*,#1209,.T.);
#903=CARTESIAN_POINT('',(0.0,-9.4742,-7.0358));
#904=DIRECTION('',(0.0,-1.0,0.0));
#905=DIRECTION('',(0.0,0.0,-1.0));
#906=ORIENTED_EDGE('',*,*,#1210,.T.);
#907=ORIENTED_EDGE('',*,*,#1201,.F.);
#908=ORIENTED_EDGE('',*,*,#1211,.F.);
#909=ORIENTED_EDGE('',*,*,#1144,.T.);
#910=CARTESIAN_POINT('',(3.048,-5.5372,-8.1788));
#911=DIRECTION('',(1.0,0.0,0.0));
#912=DIRECTION('',(0.0,1.0,-0.0));
#913=ORIENTED_EDGE('',*,*,#1211,.T.);
#914=ORIENTED_EDGE('',*,*,#1200,.F.);
#915=ORIENTED_EDGE('',*,*,#1212,.F.);
#916=ORIENTED_EDGE('',*,*,#1141,.T.);
#917=CARTESIAN_POINT('',(2.032,-5.5372,-8.1788));
#918=DIRECTION('',(0.0,0.0,-1.0));
#919=DIRECTION('',(0.0,-1.0,0.0));
#920=ORIENTED_EDGE('',*,*,#1212,.T.);
#921=ORIENTED_EDGE('',*,*,#1199,.F.);
#922=ORIENTED_EDGE('',*,*,#1213,.F.);
#923=ORIENTED_EDGE('',*,*,#1142,.T.);
#924=CARTESIAN_POINT('',(2.032,-5.5372,-7.1628));
#925=DIRECTION('',(-1.0,0.0,0.0));
#926=DIRECTION('',(0.0,0.0,1.0));
#927=ORIENTED_EDGE('',*,*,#1213,.T.);
#928=ORIENTED_EDGE('',*,*,#1198,.F.);
#929=ORIENTED_EDGE('',*,*,#1210,.F.);
#930=ORIENTED_EDGE('',*,*,#1143,.T.);
#931=CARTESIAN_POINT('',(3.048,-5.5372,-7.1628));
#932=DIRECTION('',(0.0,0.0,1.0));
#933=DIRECTION('',(1.0,-0.0,0.0));
#934=ORIENTED_EDGE('',*,*,#1214,.T.);
#935=ORIENTED_EDGE('',*,*,#1205,.F.);
#936=ORIENTED_EDGE('',*,*,#1215,.F.);
#937=ORIENTED_EDGE('',*,*,#1137,.T.);
#938=CARTESIAN_POINT('',(-3.048,-5.5372,-8.1788));
#939=DIRECTION('',(0.0,0.0,-1.0));
#940=DIRECTION('',(0.0,-1.0,0.0));
#941=ORIENTED_EDGE('',*,*,#1215,.T.);
#942=ORIENTED_EDGE('',*,*,#1204,.F.);
#943=ORIENTED_EDGE('',*,*,#1216,.F.);
#944=ORIENTED_EDGE('',*,*,#1134,.T.);
#945=CARTESIAN_POINT('',(-3.048,-5.5372,-7.1628));
#946=DIRECTION('',(-1.0,0.0,0.0));
#947=DIRECTION('',(0.0,0.0,1.0));
#948=ORIENTED_EDGE('',*,*,#1216,.T.);
#949=ORIENTED_EDGE('',*,*,#1203,.F.);
#950=ORIENTED_EDGE('',*,*,#1217,.F.);
#951=ORIENTED_EDGE('',*,*,#1135,.T.);
#952=CARTESIAN_POINT('',(-2.032,-5.5372,-7.1628));
#953=DIRECTION('',(0.0,0.0,1.0));
#954=DIRECTION('',(1.0,-0.0,0.0));
#955=ORIENTED_EDGE('',*,*,#1217,.T.);
#956=ORIENTED_EDGE('',*,*,#1202,.F.);
#957=ORIENTED_EDGE('',*,*,#1214,.F.);
#958=ORIENTED_EDGE('',*,*,#1136,.T.);
#959=CARTESIAN_POINT('',(-2.032,-5.5372,-8.1788));
#960=DIRECTION('',(1.0,0.0,0.0));
#961=DIRECTION('',(0.0,1.0,-0.0));
#962=ORIENTED_EDGE('',*,*,#1218,.T.);
#963=ORIENTED_EDGE('',*,*,#1209,.F.);
#964=ORIENTED_EDGE('',*,*,#1219,.F.);
#965=ORIENTED_EDGE('',*,*,#1123,.T.);
#966=CARTESIAN_POINT('',(-3.048,-5.5372,-12.2428));
#967=DIRECTION('',(-1.0,0.0,0.0));
#968=DIRECTION('',(0.0,0.0,1.0));
#969=ORIENTED_EDGE('',*,*,#1219,.T.);
#970=ORIENTED_EDGE('',*,*,#1208,.F.);
#971=ORIENTED_EDGE('',*,*,#1220,.F.);
#972=ORIENTED_EDGE('',*,*,#1120,.T.);
#973=CARTESIAN_POINT('',(-2.032,-5.5372,-12.2428));
#974=DIRECTION('',(0.0,0.0,1.0));
#975=DIRECTION('',(1.0,-0.0,0.0));
#976=ORIENTED_EDGE('',*,*,#1220,.T.);
#977=ORIENTED_EDGE('',*,*,#1207,.F.);
#978=ORIENTED_EDGE('',*,*,#1221,.F.);
#979=ORIENTED_EDGE('',*,*,#1121,.T.);
#980=CARTESIAN_POINT('',(-2.032,-5.5372,-13.2588));
#981=DIRECTION('',(1.0,0.0,0.0));
#982=DIRECTION('',(0.0,1.0,-0.0));
#983=ORIENTED_EDGE('',*,*,#1221,.T.);
#984=ORIENTED_EDGE('',*,*,#1206,.F.);
#985=ORIENTED_EDGE('',*,*,#1218,.F.);
#986=ORIENTED_EDGE('',*,*,#1122,.T.);
#987=CARTESIAN_POINT('',(-3.048,-5.5372,-13.2588));
#988=DIRECTION('',(0.0,0.0,-1.0));
#989=DIRECTION('',(0.0,-1.0,0.0));
#990=ORIENTED_EDGE('',*,*,#1101,.T.);
#991=ORIENTED_EDGE('',*,*,#1095,.T.);
#992=ORIENTED_EDGE('',*,*,#1091,.T.);
#993=ORIENTED_EDGE('',*,*,#1094,.F.);
#994=ORIENTED_EDGE('',*,*,#1102,.T.);
#995=CARTESIAN_POINT('',(0.0,0.0,-10.72134));
#996=DIRECTION('',(0.0,0.0,-1.0));
#997=DIRECTION('',(0.0,1.0,0.0));
#998=ORIENTED_EDGE('',*,*,#1061,.T.);
#999=ORIENTED_EDGE('',*,*,#1063,.F.);
#1000=ORIENTED_EDGE('',*,*,#1222,.T.);
#1001=ORIENTED_EDGE('',*,*,#1223,.F.);
#1002=CARTESIAN_POINT('',(0.0,0.0,-0.127));
#1003=DIRECTION('',(0.0,0.0,1.0));
#1004=DIRECTION('',(1.0,-0.0,0.0));
#1005=ORIENTED_EDGE('',*,*,#1223,.T.);
#1006=ORIENTED_EDGE('',*,*,#1224,.T.);
#1007=ORIENTED_EDGE('',*,*,#1225,.F.);
#1008=ORIENTED_EDGE('',*,*,#1226,.F.);
#1009=CARTESIAN_POINT('',(0.0,0.0,-10.72134));
#1010=DIRECTION('',(0.0,0.0,-1.0));
#1011=DIRECTION('',(0.0,1.0,0.0));
#1012=ORIENTED_EDGE('',*,*,#1227,.T.);
#1013=ORIENTED_EDGE('',*,*,#1224,.F.);
#1014=ORIENTED_EDGE('',*,*,#1222,.F.);
#1015=ORIENTED_EDGE('',*,*,#1226,.T.);
#1016=CARTESIAN_POINT('',(0.0,0.0,-10.72134));
#1017=DIRECTION('',(0.0,0.0,-1.0));
#1018=DIRECTION('',(0.0,1.0,0.0));
#1019=ORIENTED_EDGE('',*,*,#1225,.T.);
#1020=ORIENTED_EDGE('',*,*,#1227,.F.);
#1021=ORIENTED_EDGE('',*,*,#1228,.T.);
#1022=ORIENTED_EDGE('',*,*,#1229,.F.);
#1023=CARTESIAN_POINT('',(0.0,0.0,-3.5814));
#1024=DIRECTION('',(0.0,0.0,1.0));
#1025=DIRECTION('',(1.0,-0.0,0.0));
#1026=ORIENTED_EDGE('',*,*,#1229,.T.);
#1027=ORIENTED_EDGE('',*,*,#1230,.T.);
#1028=ORIENTED_EDGE('',*,*,#1231,.F.);
#1029=ORIENTED_EDGE('',*,*,#1232,.F.);
#1030=CARTESIAN_POINT('',(0.0,0.0,-10.72134));
#1031=DIRECTION('',(0.0,0.0,-1.0));
#1032=DIRECTION('',(0.0,1.0,0.0));
#1033=ORIENTED_EDGE('',*,*,#1233,.T.);
#1034=ORIENTED_EDGE('',*,*,#1230,.F.);
#1035=ORIENTED_EDGE('',*,*,#1228,.F.);
#1036=ORIENTED_EDGE('',*,*,#1232,.T.);
#1037=CARTESIAN_POINT('',(0.0,0.0,-10.72134));
#1038=DIRECTION('',(0.0,0.0,-1.0));
#1039=DIRECTION('',(0.0,1.0,0.0));
#1040=ORIENTED_EDGE('',*,*,#1234,.T.);
#1041=ORIENTED_EDGE('',*,*,#1235,.F.);
#1042=ORIENTED_EDGE('',*,*,#1233,.F.);
#1043=ORIENTED_EDGE('',*,*,#1236,.T.);
#1044=CARTESIAN_POINT('',(0.0,0.0,-1.2573));
#1045=DIRECTION('',(0.0,-0.0,-1.0));
#1046=DIRECTION('',(0.0,-1.0,0.0));
#1047=ORIENTED_EDGE('',*,*,#1231,.T.);
#1048=ORIENTED_EDGE('',*,*,#1235,.T.);
#1049=ORIENTED_EDGE('',*,*,#1237,.F.);
#1050=ORIENTED_EDGE('',*,*,#1236,.F.);
#1051=CARTESIAN_POINT('',(0.0,0.0,-1.2573));
#1052=DIRECTION('',(0.0,-0.0,-1.0));
#1053=DIRECTION('',(0.0,-1.0,0.0));
#1054=ORIENTED_EDGE('',*,*,#1237,.T.);
#1055=ORIENTED_EDGE('',*,*,#1234,.F.);
#1056=CARTESIAN_POINT('',(0.0,0.0,-0.9398));
#1057=DIRECTION('',(0.0,0.0,1.0));
#1058=DIRECTION('',(1.0,-0.0,0.0));
#1059=EDGE_CURVE('',#1238,#1239,#1240,.T.);
#1060=EDGE_CURVE('',#1239,#1241,#1242,.T.);
#1061=EDGE_CURVE('',#1243,#1241,#1244,.T.);
#1062=EDGE_CURVE('',#1238,#1243,#1245,.T.);
#1063=EDGE_CURVE('',#1243,#1241,#1246,.T.);
#1064=EDGE_CURVE('',#1238,#1239,#1247,.T.);
#1065=EDGE_CURVE('',#1248,#1249,#1250,.T.);
#1066=EDGE_CURVE('',#1248,#1249,#1251,.T.);
#1067=EDGE_CURVE('',#1252,#1253,#1254,.T.);
#1068=EDGE_CURVE('',#1253,#1249,#1255,.T.);
#1069=EDGE_CURVE('',#1252,#1248,#1256,.T.);
#1070=EDGE_CURVE('',#1252,#1253,#1257,.T.);
#1071=EDGE_CURVE('',#1258,#1253,#1259,.T.);
#1072=EDGE_CURVE('',#1260,#1258,#1261,.T.);
#1073=EDGE_CURVE('',#1260,#1252,#1262,.T.);
#1074=EDGE_CURVE('',#1260,#1258,#1263,.T.);
#1075=EDGE_CURVE('',#1264,#1265,#1266,.T.);
#1076=EDGE_CURVE('',#1265,#1258,#1267,.T.);
#1077=EDGE_CURVE('',#1264,#1260,#1268,.T.);
#1078=EDGE_CURVE('',#1264,#1265,#1269,.T.);
#1079=EDGE_CURVE('',#1270,#1265,#1271,.T.);
#1080=EDGE_CURVE('',#1272,#1270,#1273,.T.);
#1081=EDGE_CURVE('',#1272,#1264,#1274,.T.);
#1082=EDGE_CURVE('',#1272,#1270,#1275,.T.);
#1083=EDGE_CURVE('',#1276,#1277,#1278,.T.);
#1084=EDGE_CURVE('',#1277,#1270,#1279,.T.);
#1085=EDGE_CURVE('',#1276,#1272,#1280,.T.);
#1086=EDGE_CURVE('',#1276,#1277,#1281,.T.);
#1087=EDGE_CURVE('',#1282,#1277,#1283,.T.);
#1088=EDGE_CURVE('',#1284,#1282,#1285,.T.);
#1089=EDGE_CURVE('',#1284,#1276,#1286,.T.);
#1090=EDGE_CURVE('',#1284,#1282,#1287,.T.);
#1091=EDGE_CURVE('',#1288,#1289,#1290,.T.);
#1092=EDGE_CURVE('',#1288,#1289,#1291,.T.);
#1093=EDGE_CURVE('',#1292,#1293,#1294,.T.);
#1094=EDGE_CURVE('',#1293,#1289,#1295,.T.);
#1095=EDGE_CURVE('',#1296,#1288,#1297,.T.);
#1096=EDGE_CURVE('',#1296,#1292,#1298,.T.);
#1097=EDGE_CURVE('',#1299,#1296,#1300,.T.);
#1098=EDGE_CURVE('',#1292,#1299,#1301,.T.);
#1099=EDGE_CURVE('',#1302,#1303,#1304,.T.);
#1100=EDGE_CURVE('',#1296,#1302,#1305,.T.);
#1101=EDGE_CURVE('',#1303,#1296,#1306,.T.);
#1102=EDGE_CURVE('',#1293,#1303,#1307,.T.);
#1103=EDGE_CURVE('',#1308,#1292,#1309,.T.);
#1104=EDGE_CURVE('',#1310,#1308,#1311,.T.);
#1105=EDGE_CURVE('',#1312,#1310,#1313,.T.);
#1106=EDGE_CURVE('',#1314,#1312,#1315,.T.);
#1107=EDGE_CURVE('',#1314,#1316,#1317,.T.);
#1108=EDGE_CURVE('',#1318,#1316,#1319,.T.);
#1109=EDGE_CURVE('',#1303,#1318,#1320,.T.);
#1110=EDGE_CURVE('',#1299,#1321,#1322,.T.);
#1111=EDGE_CURVE('',#1323,#1321,#1324,.T.);
#1112=EDGE_CURVE('',#1325,#1323,#1326,.T.);
#1113=EDGE_CURVE('',#1327,#1325,#1328,.T.);
#1114=EDGE_CURVE('',#1329,#1327,#1330,.T.);
#1115=EDGE_CURVE('',#1329,#1331,#1332,.T.);
#1116=EDGE_CURVE('',#1308,#1331,#1333,.T.);
#1117=EDGE_CURVE('',#1334,#1335,#1336,.T.);
#1118=EDGE_CURVE('',#1335,#1325,#1337,.T.);
#1119=EDGE_CURVE('',#1323,#1334,#1338,.T.);
#1120=EDGE_CURVE('',#1339,#1340,#1341,.T.);
#1121=EDGE_CURVE('',#1342,#1339,#1343,.T.);
#1122=EDGE_CURVE('',#1344,#1342,#1345,.T.);
#1123=EDGE_CURVE('',#1340,#1344,#1346,.T.);
#1124=EDGE_CURVE('',#1347,#1348,#1349,.T.);
#1125=EDGE_CURVE('',#1348,#1350,#1351,.T.);
#1126=EDGE_CURVE('',#1350,#1352,#1353,.T.);
#1127=EDGE_CURVE('',#1352,#1347,#1354,.T.);
#1128=EDGE_CURVE('',#1355,#1356,#1357,.T.);
#1129=EDGE_CURVE('',#1358,#1355,#1359,.T.);
#1130=EDGE_CURVE('',#1360,#1358,#1361,.T.);
#1131=EDGE_CURVE('',#1356,#1360,#1362,.T.);
#1132=EDGE_CURVE('',#1331,#1363,#1364,.T.);
#1133=EDGE_CURVE('',#1363,#1310,#1365,.T.);
#1134=EDGE_CURVE('',#1366,#1367,#1368,.T.);
#1135=EDGE_CURVE('',#1369,#1366,#1370,.T.);
#1136=EDGE_CURVE('',#1371,#1369,#1372,.T.);
#1137=EDGE_CURVE('',#1367,#1371,#1373,.T.);
#1138=EDGE_CURVE('',#1316,#1374,#1375,.T.);
#1139=EDGE_CURVE('',#1374,#1376,#1377,.T.);
#1140=EDGE_CURVE('',#1376,#1318,#1378,.T.);
#1141=EDGE_CURVE('',#1379,#1380,#1381,.T.);
#1142=EDGE_CURVE('',#1382,#1379,#1383,.T.);
#1143=EDGE_CURVE('',#1384,#1382,#1385,.T.);
#1144=EDGE_CURVE('',#1380,#1384,#1386,.T.);
#1145=EDGE_CURVE('',#1387,#1334,#1388,.T.);
#1146=EDGE_CURVE('',#1321,#1389,#1390,.T.);
#1147=EDGE_CURVE('',#1389,#1352,#1391,.T.);
#1148=EDGE_CURVE('',#1392,#1350,#1393,.T.);
#1149=EDGE_CURVE('',#1392,#1387,#1394,.T.);
#1150=EDGE_CURVE('',#1395,#1396,#1397,.T.);
#1151=EDGE_CURVE('',#1396,#1395,#1398,.T.);
#1152=EDGE_CURVE('',#1392,#1399,#1400,.T.);
#1153=EDGE_CURVE('',#1401,#1399,#1402,.T.);
#1154=EDGE_CURVE('',#1403,#1401,#1404,.T.);
#1155=EDGE_CURVE('',#1403,#1405,#1406,.T.);
#1156=EDGE_CURVE('',#1314,#1405,#1407,.T.);
#1157=EDGE_CURVE('',#1312,#1408,#1409,.T.);
#1158=EDGE_CURVE('',#1329,#1408,#1410,.T.);
#1159=EDGE_CURVE('',#1327,#1411,#1412,.T.);
#1160=EDGE_CURVE('',#1387,#1411,#1413,.T.);
#1161=EDGE_CURVE('',#1414,#1415,#1416,.T.);
#1162=EDGE_CURVE('',#1415,#1414,#1417,.T.);
#1163=EDGE_CURVE('',#1411,#1335,#1418,.T.);
#1164=EDGE_CURVE('',#1408,#1363,#1419,.T.);
#1165=EDGE_CURVE('',#1405,#1374,#1420,.T.);
#1166=EDGE_CURVE('',#1403,#1376,#1421,.T.);
#1167=EDGE_CURVE('',#1401,#1347,#1422,.T.);
#1168=EDGE_CURVE('',#1302,#1389,#1423,.T.);
#1169=EDGE_CURVE('',#1399,#1348,#1424,.T.);
#1170=EDGE_CURVE('',#1414,#1425,#1426,.T.);
#1171=EDGE_CURVE('',#1425,#1427,#1428,.T.);
#1172=EDGE_CURVE('',#1415,#1427,#1429,.T.);
#1173=EDGE_CURVE('',#1425,#1427,#1430,.T.);
#1174=EDGE_CURVE('',#1431,#1432,#1433,.T.);
#1175=EDGE_CURVE('',#1432,#1431,#1434,.T.);
#1176=EDGE_CURVE('',#1435,#1436,#1437,.T.);
#1177=EDGE_CURVE('',#1436,#1431,#1438,.T.);
#1178=EDGE_CURVE('',#1435,#1432,#1439,.T.);
#1179=EDGE_CURVE('',#1435,#1436,#1440,.T.);
#1180=EDGE_CURVE('',#1441,#1436,#1442,.T.);
#1181=EDGE_CURVE('',#1443,#1441,#1444,.T.);
#1182=EDGE_CURVE('',#1443,#1435,#1445,.T.);
#1183=EDGE_CURVE('',#1443,#1441,#1446,.T.);
#1184=EDGE_CURVE('',#1396,#1447,#1448,.T.);
#1185=EDGE_CURVE('',#1449,#1447,#1450,.T.);
#1186=EDGE_CURVE('',#1395,#1449,#1451,.T.);
#1187=EDGE_CURVE('',#1449,#1447,#1452,.T.);
#1188=EDGE_CURVE('',#1453,#1449,#1454,.T.);
#1189=EDGE_CURVE('',#1453,#1447,#1455,.T.);
#1190=EDGE_CURVE('',#1360,#1456,#1457,.T.);
#1191=EDGE_CURVE('',#1458,#1456,#1459,.T.);
#1192=EDGE_CURVE('',#1356,#1458,#1460,.T.);
#1193=EDGE_CURVE('',#1461,#1458,#1462,.T.);
#1194=EDGE_CURVE('',#1355,#1461,#1463,.T.);
#1195=EDGE_CURVE('',#1464,#1461,#1465,.T.);
#1196=EDGE_CURVE('',#1358,#1464,#1466,.T.);
#1197=EDGE_CURVE('',#1456,#1464,#1467,.T.);
#1198=EDGE_CURVE('',#1468,#1469,#1470,.T.);
#1199=EDGE_CURVE('',#1469,#1471,#1472,.T.);
#1200=EDGE_CURVE('',#1471,#1473,#1474,.T.);
#1201=EDGE_CURVE('',#1473,#1468,#1475,.T.);
#1202=EDGE_CURVE('',#1476,#1477,#1478,.T.);
#1203=EDGE_CURVE('',#1477,#1479,#1480,.T.);
#1204=EDGE_CURVE('',#1479,#1481,#1482,.T.);
#1205=EDGE_CURVE('',#1481,#1476,#1483,.T.);
#1206=EDGE_CURVE('',#1484,#1485,#1486,.T.);
#1207=EDGE_CURVE('',#1485,#1487,#1488,.T.);
#1208=EDGE_CURVE('',#1487,#1489,#1490,.T.);
#1209=EDGE_CURVE('',#1489,#1484,#1491,.T.);
#1210=EDGE_CURVE('',#1384,#1468,#1492,.T.);
#1211=EDGE_CURVE('',#1380,#1473,#1493,.T.);
#1212=EDGE_CURVE('',#1379,#1471,#1494,.T.);
#1213=EDGE_CURVE('',#1382,#1469,#1495,.T.);
#1214=EDGE_CURVE('',#1371,#1476,#1496,.T.);
#1215=EDGE_CURVE('',#1367,#1481,#1497,.T.);
#1216=EDGE_CURVE('',#1366,#1479,#1498,.T.);
#1217=EDGE_CURVE('',#1369,#1477,#1499,.T.);
#1218=EDGE_CURVE('',#1344,#1484,#1500,.T.);
#1219=EDGE_CURVE('',#1340,#1489,#1501,.T.);
#1220=EDGE_CURVE('',#1339,#1487,#1502,.T.);
#1221=EDGE_CURVE('',#1342,#1485,#1503,.T.);
#1222=EDGE_CURVE('',#1504,#1505,#1506,.T.);
#1223=EDGE_CURVE('',#1504,#1505,#1507,.T.);
#1224=EDGE_CURVE('',#1505,#1508,#1509,.T.);
#1225=EDGE_CURVE('',#1510,#1508,#1511,.T.);
#1226=EDGE_CURVE('',#1504,#1510,#1512,.T.);
#1227=EDGE_CURVE('',#1510,#1508,#1513,.T.);
#1228=EDGE_CURVE('',#1514,#1515,#1516,.T.);
#1229=EDGE_CURVE('',#1514,#1515,#1517,.T.);
#1230=EDGE_CURVE('',#1515,#1518,#1519,.T.);
#1231=EDGE_CURVE('',#1520,#1518,#1521,.T.);
#1232=EDGE_CURVE('',#1514,#1520,#1522,.T.);
#1233=EDGE_CURVE('',#1520,#1518,#1523,.T.);
#1234=EDGE_CURVE('',#1524,#1525,#1526,.T.);
#1235=EDGE_CURVE('',#1518,#1525,#1527,.T.);
#1236=EDGE_CURVE('',#1520,#1524,#1528,.T.);
#1237=EDGE_CURVE('',#1524,#1525,#1529,.T.);
#1238=VERTEX_POINT('',#1530);
#1239=VERTEX_POINT('',#1531);
#1240=CIRCLE('',#1532,1.3843);
#1241=VERTEX_POINT('',#1533);
#1242=LINE('',#1534,#1535);
#1243=VERTEX_POINT('',#1536);
#1244=CIRCLE('',#1537,1.3843);
#1245=LINE('',#1538,#1539);
#1246=CIRCLE('',#1540,1.3843);
#1247=CIRCLE('',#1541,1.3843);
#1248=VERTEX_POINT('',#1542);
#1249=VERTEX_POINT('',#1543);
#1250=CIRCLE('',#1544,1.651);
#1251=CIRCLE('',#1545,1.651);
#1252=VERTEX_POINT('',#1546);
#1253=VERTEX_POINT('',#1547);
#1254=CIRCLE('',#1548,1.8415);
#1255=LINE('',#1549,#1550);
#1256=LINE('',#1551,#1552);
#1257=CIRCLE('',#1553,1.8415);
#1258=VERTEX_POINT('',#1554);
#1259=LINE('',#1555,#1556);
#1260=VERTEX_POINT('',#1557);
#1261=CIRCLE('',#1558,1.8415);
#1262=LINE('',#1559,#1560);
#1263=CIRCLE('',#1561,1.8415);
#1264=VERTEX_POINT('',#1562);
#1265=VERTEX_POINT('',#1563);
#1266=CIRCLE('',#1564,1.6637);
#1267=LINE('',#1565,#1566);
#1268=LINE('',#1567,#1568);
#1269=CIRCLE('',#1569,1.6637);
#1270=VERTEX_POINT('',#1570);
#1271=LINE('',#1571,#1572);
#1272=VERTEX_POINT('',#1573);
#1273=CIRCLE('',#1574,1.6637);
#1274=LINE('',#1575,#1576);
#1275=CIRCLE('',#1577,1.6637);
#1276=VERTEX_POINT('',#1578);
#1277=VERTEX_POINT('',#1579);
#1278=CIRCLE('',#1580,1.8415);
#1279=LINE('',#1581,#1582);
#1280=LINE('',#1583,#1584);
#1281=CIRCLE('',#1585,1.8415);
#1282=VERTEX_POINT('',#1586);
#1283=LINE('',#1587,#1588);
#1284=VERTEX_POINT('',#1589);
#1285=CIRCLE('',#1590,1.8415);
#1286=LINE('',#1591,#1592);
#1287=CIRCLE('',#1593,1.8415);
#1288=VERTEX_POINT('',#1594);
#1289=VERTEX_POINT('',#1595);
#1290=CIRCLE('',#1596,3.175);
#1291=CIRCLE('',#1597,3.175);
#1292=VERTEX_POINT('',#1598);
#1293=VERTEX_POINT('',#1599);
#1294=CIRCLE('',#1600,3.175);
#1295=LINE('',#1601,#1602);
#1296=VERTEX_POINT('',#1603);
#1297=LINE('',#1604,#1605);
#1298=CIRCLE('',#1606,3.175);
#1299=VERTEX_POINT('',#1607);
#1300=LINE('',#1608,#1609);
#1301=LINE('',#1610,#1611);
#1302=VERTEX_POINT('',#1612);
#1303=VERTEX_POINT('',#1613);
#1304=LINE('',#1614,#1615);
#1305=LINE('',#1616,#1617);
#1306=CIRCLE('',#1618,3.175);
#1307=CIRCLE('',#1619,3.175);
#1308=VERTEX_POINT('',#1620);
#1309=LINE('',#1621,#1622);
#1310=VERTEX_POINT('',#1623);
#1311=LINE('',#1624,#1625);
#1312=VERTEX_POINT('',#1626);
#1313=LINE('',#1627,#1628);
#1314=VERTEX_POINT('',#1629);
#1315=LINE('',#1630,#1631);
#1316=VERTEX_POINT('',#1632);
#1317=LINE('',#1633,#1634);
#1318=VERTEX_POINT('',#1635);
#1319=LINE('',#1636,#1637);
#1320=LINE('',#1638,#1639);
#1321=VERTEX_POINT('',#1640);
#1322=LINE('',#1641,#1642);
#1323=VERTEX_POINT('',#1643);
#1324=LINE('',#1644,#1645);
#1325=VERTEX_POINT('',#1646);
#1326=LINE('',#1647,#1648);
#1327=VERTEX_POINT('',#1649);
#1328=LINE('',#1650,#1651);
#1329=VERTEX_POINT('',#1652);
#1330=LINE('',#1653,#1654);
#1331=VERTEX_POINT('',#1655);
#1332=LINE('',#1656,#1657);
#1333=LINE('',#1658,#1659);
#1334=VERTEX_POINT('',#1660);
#1335=VERTEX_POINT('',#1661);
#1336=LINE('',#1662,#1663);
#1337=LINE('',#1664,#1665);
#1338=LINE('',#1666,#1667);
#1339=VERTEX_POINT('',#1668);
#1340=VERTEX_POINT('',#1669);
#1341=LINE('',#1670,#1671);
#1342=VERTEX_POINT('',#1672);
#1343=LINE('',#1673,#1674);
#1344=VERTEX_POINT('',#1675);
#1345=LINE('',#1676,#1677);
#1346=LINE('',#1678,#1679);
#1347=VERTEX_POINT('',#1680);
#1348=VERTEX_POINT('',#1681);
#1349=LINE('',#1682,#1683);
#1350=VERTEX_POINT('',#1684);
#1351=LINE('',#1685,#1686);
#1352=VERTEX_POINT('',#1687);
#1353=LINE('',#1688,#1689);
#1354=LINE('',#1690,#1691);
#1355=VERTEX_POINT('',#1692);
#1356=VERTEX_POINT('',#1693);
#1357=LINE('',#1694,#1695);
#1358=VERTEX_POINT('',#1696);
#1359=LINE('',#1697,#1698);
#1360=VERTEX_POINT('',#1699);
#1361=LINE('',#1700,#1701);
#1362=LINE('',#1702,#1703);
#1363=VERTEX_POINT('',#1704);
#1364=LINE('',#1705,#1706);
#1365=LINE('',#1707,#1708);
#1366=VERTEX_POINT('',#1709);
#1367=VERTEX_POINT('',#1710);
#1368=LINE('',#1711,#1712);
#1369=VERTEX_POINT('',#1713);
#1370=LINE('',#1714,#1715);
#1371=VERTEX_POINT('',#1716);
#1372=LINE('',#1717,#1718);
#1373=LINE('',#1719,#1720);
#1374=VERTEX_POINT('',#1721);
#1375=LINE('',#1722,#1723);
#1376=VERTEX_POINT('',#1724);
#1377=LINE('',#1725,#1726);
#1378=LINE('',#1727,#1728);
#1379=VERTEX_POINT('',#1729);
#1380=VERTEX_POINT('',#1730);
#1381=LINE('',#1731,#1732);
#1382=VERTEX_POINT('',#1733);
#1383=LINE('',#1734,#1735);
#1384=VERTEX_POINT('',#1736);
#1385=LINE('',#1737,#1738);
#1386=LINE('',#1739,#1740);
#1387=VERTEX_POINT('',#1741);
#1388=LINE('',#1742,#1743);
#1389=VERTEX_POINT('',#1744);
#1390=LINE('',#1745,#1746);
#1391=LINE('',#1747,#1748);
#1392=VERTEX_POINT('',#1749);
#1393=LINE('',#1750,#1751);
#1394=LINE('',#1752,#1753);
#1395=VERTEX_POINT('',#1754);
#1396=VERTEX_POINT('',#1755);
#1397=CIRCLE('',#1756,2.8321);
#1398=CIRCLE('',#1757,2.8321);
#1399=VERTEX_POINT('',#1758);
#1400=LINE('',#1759,#1760);
#1401=VERTEX_POINT('',#1761);
#1402=LINE('',#1762,#1763);
#1403=VERTEX_POINT('',#1764);
#1404=LINE('',#1765,#1766);
#1405=VERTEX_POINT('',#1767);
#1406=LINE('',#1768,#1769);
#1407=LINE('',#1770,#1771);
#1408=VERTEX_POINT('',#1772);
#1409=LINE('',#1773,#1774);
#1410=LINE('',#1775,#1776);
#1411=VERTEX_POINT('',#1777);
#1412=LINE('',#1778,#1779);
#1413=LINE('',#1780,#1781);
#1414=VERTEX_POINT('',#1782);
#1415=VERTEX_POINT('',#1783);
#1416=CIRCLE('',#1784,1.651);
#1417=CIRCLE('',#1785,1.651);
#1418=LINE('',#1786,#1787);
#1419=LINE('',#1788,#1789);
#1420=LINE('',#1790,#1791);
#1421=LINE('',#1792,#1793);
#1422=LINE('',#1794,#1795);
#1423=LINE('',#1796,#1797);
#1424=LINE('',#1798,#1799);
#1425=VERTEX_POINT('',#1800);
#1426=LINE('',#1801,#1802);
#1427=VERTEX_POINT('',#1803);
#1428=CIRCLE('',#1804,1.651);
#1429=LINE('',#1805,#1806);
#1430=CIRCLE('',#1807,1.651);
#1431=VERTEX_POINT('',#1808);
#1432=VERTEX_POINT('',#1809);
#1433=CIRCLE('',#1810,0.4826);
#1434=CIRCLE('',#1811,0.4826);
#1435=VERTEX_POINT('',#1812);
#1436=VERTEX_POINT('',#1813);
#1437=CIRCLE('',#1814,0.4826);
#1438=LINE('',#1815,#1816);
#1439=LINE('',#1817,#1818);
#1440=CIRCLE('',#1819,0.4826);
#1441=VERTEX_POINT('',#1820);
#1442=LINE('',#1821,#1822);
#1443=VERTEX_POINT('',#1823);
#1444=CIRCLE('',#1824,0.2286);
#1445=LINE('',#1825,#1826);
#1446=CIRCLE('',#1827,0.2286);
#1447=VERTEX_POINT('',#1828);
#1448=LINE('',#1829,#1830);
#1449=VERTEX_POINT('',#1831);
#1450=CIRCLE('',#1832,2.8321);
#1451=LINE('',#1833,#1834);
#1452=CIRCLE('',#1835,2.8321);
#1453=VERTEX_POINT('',#1836);
#1454=CIRCLE('',#1837,8.14847875);
#1455=CIRCLE('',#1838,8.14847875);
#1456=VERTEX_POINT('',#1839);
#1457=LINE('',#1840,#1841);
#1458=VERTEX_POINT('',#1842);
#1459=LINE('',#1843,#1844);
#1460=LINE('',#1845,#1846);
#1461=VERTEX_POINT('',#1847);
#1462=LINE('',#1848,#1849);
#1463=LINE('',#1850,#1851);
#1464=VERTEX_POINT('',#1852);
#1465=LINE('',#1853,#1854);
#1466=LINE('',#1855,#1856);
#1467=LINE('',#1857,#1858);
#1468=VERTEX_POINT('',#1859);
#1469=VERTEX_POINT('',#1860);
#1470=LINE('',#1861,#1862);
#1471=VERTEX_POINT('',#1863);
#1472=LINE('',#1864,#1865);
#1473=VERTEX_POINT('',#1866);
#1474=LINE('',#1867,#1868);
#1475=LINE('',#1869,#1870);
#1476=VERTEX_POINT('',#1871);
#1477=VERTEX_POINT('',#1872);
#1478=LINE('',#1873,#1874);
#1479=VERTEX_POINT('',#1875);
#1480=LINE('',#1876,#1877);
#1481=VERTEX_POINT('',#1878);
#1482=LINE('',#1879,#1880);
#1483=LINE('',#1881,#1882);
#1484=VERTEX_POINT('',#1883);
#1485=VERTEX_POINT('',#1884);
#1486=LINE('',#1885,#1886);
#1487=VERTEX_POINT('',#1887);
#1488=LINE('',#1888,#1889);
#1489=VERTEX_POINT('',#1890);
#1490=LINE('',#1891,#1892);
#1491=LINE('',#1893,#1894);
#1492=LINE('',#1895,#1896);
#1493=LINE('',#1897,#1898);
#1494=LINE('',#1899,#1900);
#1495=LINE('',#1901,#1902);
#1496=LINE('',#1903,#1904);
#1497=LINE('',#1905,#1906);
#1498=LINE('',#1907,#1908);
#1499=LINE('',#1909,#1910);
#1500=LINE('',#1911,#1912);
#1501=LINE('',#1913,#1914);
#1502=LINE('',#1915,#1916);
#1503=LINE('',#1917,#1918);
#1504=VERTEX_POINT('',#1919);
#1505=VERTEX_POINT('',#1920);
#1506=CIRCLE('',#1921,1.0668);
#1507=CIRCLE('',#1922,1.0668);
#1508=VERTEX_POINT('',#1923);
#1509=LINE('',#1924,#1925);
#1510=VERTEX_POINT('',#1926);
#1511=CIRCLE('',#1927,1.0668);
#1512=LINE('',#1928,#1929);
#1513=CIRCLE('',#1930,1.0668);
#1514=VERTEX_POINT('',#1931);
#1515=VERTEX_POINT('',#1932);
#1516=CIRCLE('',#1933,0.2539999999999);
#1517=CIRCLE('',#1934,0.2539999999999);
#1518=VERTEX_POINT('',#1935);
#1519=LINE('',#1936,#1937);
#1520=VERTEX_POINT('',#1938);
#1521=CIRCLE('',#1939,0.2539999999999);
#1522=LINE('',#1940,#1941);
#1523=CIRCLE('',#1942,0.2539999999999);
#1524=VERTEX_POINT('',#1943);
#1525=VERTEX_POINT('',#1944);
#1526=CIRCLE('',#1945,0.127);
#1527=LINE('',#1946,#1947);
#1528=LINE('',#1948,#1949);
#1529=CIRCLE('',#1950,0.127);
#1530=CARTESIAN_POINT('',(0.0,1.3843,0.0));
#1531=CARTESIAN_POINT('',(0.0,-1.3843,0.0));
#1532=AXIS2_PLACEMENT_3D('',#1951,#1952,#1953);
#1533=CARTESIAN_POINT('',(0.0,-1.3843,-0.127));
#1534=CARTESIAN_POINT('',(0.0,-1.3843,0.0));
#1535=VECTOR('',#1954,0.127);
#1536=CARTESIAN_POINT('',(0.0,1.3843,-0.127));
#1537=AXIS2_PLACEMENT_3D('',#1955,#1956,#1957);
#1538=CARTESIAN_POINT('',(0.0,1.3843,0.0));
#1539=VECTOR('',#1958,0.127);
#1540=AXIS2_PLACEMENT_3D('',#1959,#1960,#1961);
#1541=AXIS2_PLACEMENT_3D('',#1962,#1963,#1964);
#1542=CARTESIAN_POINT('',(0.0,1.651,0.0));
#1543=CARTESIAN_POINT('',(0.0,-1.651,0.0));
#1544=AXIS2_PLACEMENT_3D('',#1965,#1966,#1967);
#1545=AXIS2_PLACEMENT_3D('',#1968,#1969,#1970);
#1546=CARTESIAN_POINT('',(0.0,1.8415,-0.3299556788419));
#1547=CARTESIAN_POINT('',(0.0,-1.8415,-0.3299556788419));
#1548=AXIS2_PLACEMENT_3D('',#1971,#1972,#1973);
#1549=CARTESIAN_POINT('',(0.0,-1.8415,-0.3299556788419));
#1550=VECTOR('',#1974,0.381);
#1551=CARTESIAN_POINT('',(0.0,1.8415,-0.3299556788419));
#1552=VECTOR('',#1975,0.381);
#1553=AXIS2_PLACEMENT_3D('',#1976,#1977,#1978);
#1554=CARTESIAN_POINT('',(0.0,-1.8415,-3.0607));
#1555=CARTESIAN_POINT('',(0.0,-1.8415,-3.0607));
#1556=VECTOR('',#1979,2.730744321158);
#1557=CARTESIAN_POINT('',(0.0,1.8415,-3.0607));
#1558=AXIS2_PLACEMENT_3D('',#1980,#1981,#1982);
#1559=CARTESIAN_POINT('',(0.0,1.8415,-3.0607));
#1560=VECTOR('',#1983,2.730744321158);
#1561=AXIS2_PLACEMENT_3D('',#1984,#1985,#1986);
#1562=CARTESIAN_POINT('',(0.0,1.6637,-3.2766));
#1563=CARTESIAN_POINT('',(0.0,-1.6637,-3.2766));
#1564=AXIS2_PLACEMENT_3D('',#1987,#1988,#1989);
#1565=CARTESIAN_POINT('',(0.0,-1.6637,-3.2766));
#1566=VECTOR('',#1990,0.2796884874286);
#1567=CARTESIAN_POINT('',(0.0,1.6637,-3.2766));
#1568=VECTOR('',#1991,0.2796884874286);
#1569=AXIS2_PLACEMENT_3D('',#1992,#1993,#1994);
#1570=CARTESIAN_POINT('',(0.0,-1.6637,-3.6322));
#1571=CARTESIAN_POINT('',(0.0,-1.6637,-3.6322));
#1572=VECTOR('',#1995,0.3556);
#1573=CARTESIAN_POINT('',(0.0,1.6637,-3.6322));
#1574=AXIS2_PLACEMENT_3D('',#1996,#1997,#1998);
#1575=CARTESIAN_POINT('',(0.0,1.6637,-3.6322));
#1576=VECTOR('',#1999,0.3556);
#1577=AXIS2_PLACEMENT_3D('',#2000,#2001,#2002);
#1578=CARTESIAN_POINT('',(0.0,1.8415,-3.8481));
#1579=CARTESIAN_POINT('',(0.0,-1.8415,-3.8481));
#1580=AXIS2_PLACEMENT_3D('',#2003,#2004,#2005);
#1581=CARTESIAN_POINT('',(0.0,-1.8415,-3.8481));
#1582=VECTOR('',#2006,0.2796884874286);
#1583=CARTESIAN_POINT('',(0.0,1.8415,-3.8481));
#1584=VECTOR('',#2007,0.2796884874286);
#1585=AXIS2_PLACEMENT_3D('',#2008,#2009,#2010);
#1586=CARTESIAN_POINT('',(0.0,-1.8415,-6.1468));
#1587=CARTESIAN_POINT('',(0.0,-1.8415,-6.1468));
#1588=VECTOR('',#2011,2.2987);
#1589=CARTESIAN_POINT('',(0.0,1.8415,-6.1468));
#1590=AXIS2_PLACEMENT_3D('',#2012,#2013,#2014);
#1591=CARTESIAN_POINT('',(0.0,1.8415,-6.1468));
#1592=VECTOR('',#2015,2.2987);
#1593=AXIS2_PLACEMENT_3D('',#2016,#2017,#2018);
#1594=CARTESIAN_POINT('',(0.0,3.175,-6.1468));
#1595=CARTESIAN_POINT('',(0.0,-3.175,-6.1468));
#1596=AXIS2_PLACEMENT_3D('',#2019,#2020,#2021);
#1597=AXIS2_PLACEMENT_3D('',#2022,#2023,#2024);
#1598=CARTESIAN_POINT('',(-3.175,0.0,-7.0358));
#1599=CARTESIAN_POINT('',(0.0,-3.175,-7.0358));
#1600=AXIS2_PLACEMENT_3D('',#2025,#2026,#2027);
#1601=CARTESIAN_POINT('',(0.0,-3.175,-7.0358));
#1602=VECTOR('',#2028,0.889);
#1603=CARTESIAN_POINT('',(0.0,3.175,-7.0358));
#1604=CARTESIAN_POINT('',(0.0,3.175,-7.0358));
#1605=VECTOR('',#2029,0.889);
#1606=AXIS2_PLACEMENT_3D('',#2030,#2031,#2032);
#1607=CARTESIAN_POINT('',(-3.175,3.175,-7.0358));
#1608=CARTESIAN_POINT('',(-3.175,3.175,-7.0358));
#1609=VECTOR('',#2033,3.175);
#1610=CARTESIAN_POINT('',(-3.175,0.0,-7.0358));
#1611=VECTOR('',#2034,3.175);
#1612=CARTESIAN_POINT('',(3.175,3.175,-7.0358));
#1613=CARTESIAN_POINT('',(3.175,0.0,-7.0358));
#1614=CARTESIAN_POINT('',(3.175,3.175,-7.0358));
#1615=VECTOR('',#2035,3.175);
#1616=CARTESIAN_POINT('',(0.0,3.175,-7.0358));
#1617=VECTOR('',#2036,3.175);
#1618=AXIS2_PLACEMENT_3D('',#2037,#2038,#2039);
#1619=AXIS2_PLACEMENT_3D('',#2040,#2041,#2042);
#1620=CARTESIAN_POINT('',(-3.175,-5.5372,-7.0358));
#1621=CARTESIAN_POINT('',(-3.175,-5.5372,-7.0358));
#1622=VECTOR('',#2043,5.5372);
#1623=CARTESIAN_POINT('',(-1.5494,-5.5372,-7.0358));
#1624=CARTESIAN_POINT('',(-1.5494,-5.5372,-7.0358));
#1625=VECTOR('',#2044,1.6256);
#1626=CARTESIAN_POINT('',(-1.5494,-4.9022,-7.0358));
#1627=CARTESIAN_POINT('',(-1.5494,-4.9022,-7.0358));
#1628=VECTOR('',#2045,0.635);
#1629=CARTESIAN_POINT('',(1.5494,-4.9022,-7.0358));
#1630=CARTESIAN_POINT('',(1.5494,-4.9022,-7.0358));
#1631=VECTOR('',#2046,3.0988);
#1632=CARTESIAN_POINT('',(1.5494,-5.5372,-7.0358));
#1633=CARTESIAN_POINT('',(1.5494,-4.9022,-7.0358));
#1634=VECTOR('',#2047,0.635);
#1635=CARTESIAN_POINT('',(3.175,-5.5372,-7.0358));
#1636=CARTESIAN_POINT('',(3.175,-5.5372,-7.0358));
#1637=VECTOR('',#2048,1.6256);
#1638=CARTESIAN_POINT('',(3.175,0.0,-7.0358));
#1639=VECTOR('',#2049,5.5372);
#1640=CARTESIAN_POINT('',(-3.175,3.175,-13.3858));
#1641=CARTESIAN_POINT('',(-3.175,3.175,-7.0358));
#1642=VECTOR('',#2050,6.35);
#1643=CARTESIAN_POINT('',(-3.175,-5.5372,-13.3858));
#1644=CARTESIAN_POINT('',(-3.175,-5.5372,-13.3858));
#1645=VECTOR('',#2051,8.7122);
#1646=CARTESIAN_POINT('',(-3.175,-5.5372,-11.7602));
#1647=CARTESIAN_POINT('',(-3.175,-5.5372,-11.7602));
#1648=VECTOR('',#2052,1.6256);
#1649=CARTESIAN_POINT('',(-3.175,-4.9022,-11.7602));
#1650=CARTESIAN_POINT('',(-3.175,-4.9022,-11.7602));
#1651=VECTOR('',#2053,0.635);
#1652=CARTESIAN_POINT('',(-3.175,-4.9022,-8.6614));
#1653=CARTESIAN_POINT('',(-3.175,-4.9022,-8.6614));
#1654=VECTOR('',#2054,3.0988);
#1655=CARTESIAN_POINT('',(-3.175,-5.5372,-8.6614));
#1656=CARTESIAN_POINT('',(-3.175,-4.9022,-8.6614));
#1657=VECTOR('',#2055,0.635);
#1658=CARTESIAN_POINT('',(-3.175,-5.5372,-7.0358));
#1659=VECTOR('',#2056,1.6256);
#1660=CARTESIAN_POINT('',(-1.5494,-5.5372,-13.3858));
#1661=CARTESIAN_POINT('',(-1.5494,-5.5372,-11.7602));
#1662=CARTESIAN_POINT('',(-1.5494,-5.5372,-13.3858));
#1663=VECTOR('',#2057,1.6256);
#1664=CARTESIAN_POINT('',(-1.5494,-5.5372,-11.7602));
#1665=VECTOR('',#2058,1.6256);
#1666=CARTESIAN_POINT('',(-3.175,-5.5372,-13.3858));
#1667=VECTOR('',#2059,1.6256);
#1668=CARTESIAN_POINT('',(-2.032,-5.5372,-12.2428));
#1669=CARTESIAN_POINT('',(-3.048,-5.5372,-12.2428));
#1670=CARTESIAN_POINT('',(-2.032,-5.5372,-12.2428));
#1671=VECTOR('',#2060,1.016);
#1672=CARTESIAN_POINT('',(-2.032,-5.5372,-13.2588));
#1673=CARTESIAN_POINT('',(-2.032,-5.5372,-13.2588));
#1674=VECTOR('',#2061,1.016);
#1675=CARTESIAN_POINT('',(-3.048,-5.5372,-13.2588));
#1676=CARTESIAN_POINT('',(-3.048,-5.5372,-13.2588));
#1677=VECTOR('',#2062,1.016);
#1678=CARTESIAN_POINT('',(-3.048,-5.5372,-12.2428));
#1679=VECTOR('',#2063,1.016);
#1680=CARTESIAN_POINT('',(3.175,-5.5372,-11.7602));
#1681=CARTESIAN_POINT('',(1.5494,-5.5372,-11.7602));
#1682=CARTESIAN_POINT('',(3.175,-5.5372,-11.7602));
#1683=VECTOR('',#2064,1.6256);
#1684=CARTESIAN_POINT('',(1.5494,-5.5372,-13.3858));
#1685=CARTESIAN_POINT('',(1.5494,-5.5372,-11.7602));
#1686=VECTOR('',#2065,1.6256);
#1687=CARTESIAN_POINT('',(3.175,-5.5372,-13.3858));
#1688=CARTESIAN_POINT('',(1.5494,-5.5372,-13.3858));
#1689=VECTOR('',#2066,1.6256);
#1690=CARTESIAN_POINT('',(3.175,-5.5372,-13.3858));
#1691=VECTOR('',#2067,1.6256);
#1692=CARTESIAN_POINT('',(3.048,-5.5372,-13.2588));
#1693=CARTESIAN_POINT('',(3.048,-5.5372,-12.2428));
#1694=CARTESIAN_POINT('',(3.048,-5.5372,-13.2588));
#1695=VECTOR('',#2068,1.016);
#1696=CARTESIAN_POINT('',(2.032,-5.5372,-13.2588));
#1697=CARTESIAN_POINT('',(2.032,-5.5372,-13.2588));
#1698=VECTOR('',#2069,1.016);
#1699=CARTESIAN_POINT('',(2.032,-5.5372,-12.2428));
#1700=CARTESIAN_POINT('',(2.032,-5.5372,-12.2428));
#1701=VECTOR('',#2070,1.016);
#1702=CARTESIAN_POINT('',(3.048,-5.5372,-12.2428));
#1703=VECTOR('',#2071,1.016);
#1704=CARTESIAN_POINT('',(-1.5494,-5.5372,-8.6614));
#1705=CARTESIAN_POINT('',(-3.175,-5.5372,-8.6614));
#1706=VECTOR('',#2072,1.6256);
#1707=CARTESIAN_POINT('',(-1.5494,-5.5372,-8.6614));
#1708=VECTOR('',#2073,1.6256);
#1709=CARTESIAN_POINT('',(-3.048,-5.5372,-7.1628));
#1710=CARTESIAN_POINT('',(-3.048,-5.5372,-8.1788));
#1711=CARTESIAN_POINT('',(-3.048,-5.5372,-7.1628));
#1712=VECTOR('',#2074,1.016);
#1713=CARTESIAN_POINT('',(-2.032,-5.5372,-7.1628));
#1714=CARTESIAN_POINT('',(-2.032,-5.5372,-7.1628));
#1715=VECTOR('',#2075,1.016);
#1716=CARTESIAN_POINT('',(-2.032,-5.5372,-8.1788));
#1717=CARTESIAN_POINT('',(-2.032,-5.5372,-8.1788));
#1718=VECTOR('',#2076,1.016);
#1719=CARTESIAN_POINT('',(-3.048,-5.5372,-8.1788));
#1720=VECTOR('',#2077,1.016);
#1721=CARTESIAN_POINT('',(1.5494,-5.5372,-8.6614));
#1722=CARTESIAN_POINT('',(1.5494,-5.5372,-7.0358));
#1723=VECTOR('',#2078,1.6256);
#1724=CARTESIAN_POINT('',(3.175,-5.5372,-8.6614));
#1725=CARTESIAN_POINT('',(1.5494,-5.5372,-8.6614));
#1726=VECTOR('',#2079,1.6256);
#1727=CARTESIAN_POINT('',(3.175,-5.5372,-8.6614));
#1728=VECTOR('',#2080,1.6256);
#1729=CARTESIAN_POINT('',(2.032,-5.5372,-8.1788));
#1730=CARTESIAN_POINT('',(3.048,-5.5372,-8.1788));
#1731=CARTESIAN_POINT('',(2.032,-5.5372,-8.1788));
#1732=VECTOR('',#2081,1.016);
#1733=CARTESIAN_POINT('',(2.032,-5.5372,-7.1628));
#1734=CARTESIAN_POINT('',(2.032,-5.5372,-7.1628));
#1735=VECTOR('',#2082,1.016);
#1736=CARTESIAN_POINT('',(3.048,-5.5372,-7.1628));
#1737=CARTESIAN_POINT('',(3.048,-5.5372,-7.1628));
#1738=VECTOR('',#2083,1.016);
#1739=CARTESIAN_POINT('',(3.048,-5.5372,-8.1788));
#1740=VECTOR('',#2084,1.016);
#1741=CARTESIAN_POINT('',(-1.5494,-4.9022,-13.3858));
#1742=CARTESIAN_POINT('',(-1.5494,-4.9022,-13.3858));
#1743=VECTOR('',#2085,0.635);
#1744=CARTESIAN_POINT('',(3.175,3.175,-13.3858));
#1745=CARTESIAN_POINT('',(-3.175,3.175,-13.3858));
#1746=VECTOR('',#2086,6.35);
#1747=CARTESIAN_POINT('',(3.175,3.175,-13.3858));
#1748=VECTOR('',#2087,8.7122);
#1749=CARTESIAN_POINT('',(1.5494,-4.9022,-13.3858));
#1750=CARTESIAN_POINT('',(1.5494,-4.9022,-13.3858));
#1751=VECTOR('',#2088,0.635);
#1752=CARTESIAN_POINT('',(1.5494,-4.9022,-13.3858));
#1753=VECTOR('',#2089,3.0988);
#1754=CARTESIAN_POINT('',(0.0,-2.8321,-13.3858));
#1755=CARTESIAN_POINT('',(0.0,2.8321,-13.3858));
#1756=AXIS2_PLACEMENT_3D('',#2090,#2091,#2092);
#1757=AXIS2_PLACEMENT_3D('',#2093,#2094,#2095);
#1758=CARTESIAN_POINT('',(1.5494,-4.9022,-11.7602));
#1759=CARTESIAN_POINT('',(1.5494,-4.9022,-13.3858));
#1760=VECTOR('',#2096,1.6256);
#1761=CARTESIAN_POINT('',(3.175,-4.9022,-11.7602));
#1762=CARTESIAN_POINT('',(3.175,-4.9022,-11.7602));
#1763=VECTOR('',#2097,1.6256);
#1764=CARTESIAN_POINT('',(3.175,-4.9022,-8.6614));
#1765=CARTESIAN_POINT('',(3.175,-4.9022,-8.6614));
#1766=VECTOR('',#2098,3.0988);
#1767=CARTESIAN_POINT('',(1.5494,-4.9022,-8.6614));
#1768=CARTESIAN_POINT('',(3.175,-4.9022,-8.6614));
#1769=VECTOR('',#2099,1.6256);
#1770=CARTESIAN_POINT('',(1.5494,-4.9022,-7.0358));
#1771=VECTOR('',#2100,1.6256);
#1772=CARTESIAN_POINT('',(-1.5494,-4.9022,-8.6614));
#1773=CARTESIAN_POINT('',(-1.5494,-4.9022,-7.0358));
#1774=VECTOR('',#2101,1.6256);
#1775=CARTESIAN_POINT('',(-3.175,-4.9022,-8.6614));
#1776=VECTOR('',#2102,1.6256);
#1777=CARTESIAN_POINT('',(-1.5494,-4.9022,-11.7602));
#1778=CARTESIAN_POINT('',(-3.175,-4.9022,-11.7602));
#1779=VECTOR('',#2103,1.6256);
#1780=CARTESIAN_POINT('',(-1.5494,-4.9022,-13.3858));
#1781=VECTOR('',#2104,1.6256);
#1782=CARTESIAN_POINT('',(0.0,-4.9022,-8.5598));
#1783=CARTESIAN_POINT('',(0.0,-4.9022,-11.8618));
#1784=AXIS2_PLACEMENT_3D('',#2105,#2106,#2107);
#1785=AXIS2_PLACEMENT_3D('',#2108,#2109,#2110);
#1786=CARTESIAN_POINT('',(-1.5494,-4.9022,-11.7602));
#1787=VECTOR('',#2111,0.635);
#1788=CARTESIAN_POINT('',(-1.5494,-4.9022,-8.6614));
#1789=VECTOR('',#2112,0.635);
#1790=CARTESIAN_POINT('',(1.5494,-4.9022,-8.6614));
#1791=VECTOR('',#2113,0.635);
#1792=CARTESIAN_POINT('',(3.175,-4.9022,-8.6614));
#1793=VECTOR('',#2114,0.635);
#1794=CARTESIAN_POINT('',(3.175,-4.9022,-11.7602));
#1795=VECTOR('',#2115,0.635);
#1796=CARTESIAN_POINT('',(3.175,3.175,-7.0358));
#1797=VECTOR('',#2116,6.35);
#1798=CARTESIAN_POINT('',(1.5494,-4.9022,-11.7602));
#1799=VECTOR('',#2117,0.635);
#1800=CARTESIAN_POINT('',(0.0,-4.8514,-8.5598));
#1801=CARTESIAN_POINT('',(0.0,-4.9022,-8.5598));
#1802=VECTOR('',#2118,0.0508);
#1803=CARTESIAN_POINT('',(0.0,-4.8514,-11.8618));
#1804=AXIS2_PLACEMENT_3D('',#2119,#2120,#2121);
#1805=CARTESIAN_POINT('',(0.0,-4.9022,-11.8618));
#1806=VECTOR('',#2122,0.0508);
#1807=AXIS2_PLACEMENT_3D('',#2123,#2124,#2125);
#1808=CARTESIAN_POINT('',(0.0,-4.8514,-9.7282));
#1809=CARTESIAN_POINT('',(0.0,-4.8514,-10.6934));
#1810=AXIS2_PLACEMENT_3D('',#2126,#2127,#2128);
#1811=AXIS2_PLACEMENT_3D('',#2129,#2130,#2131);
#1812=CARTESIAN_POINT('',(0.0,-9.2202,-10.6934));
#1813=CARTESIAN_POINT('',(0.0,-9.2202,-9.7282));
#1814=AXIS2_PLACEMENT_3D('',#2132,#2133,#2134);
#1815=CARTESIAN_POINT('',(0.0,-9.2202,-9.7282));
#1816=VECTOR('',#2135,4.3688);
#1817=CARTESIAN_POINT('',(0.0,-9.2202,-10.6934));
#1818=VECTOR('',#2136,4.3688);
#1819=AXIS2_PLACEMENT_3D('',#2137,#2138,#2139);
#1820=CARTESIAN_POINT('',(0.0,-9.4742,-9.9822));
#1821=CARTESIAN_POINT('',(0.0,-9.4742,-9.9822));
#1822=VECTOR('',#2140,0.3592102448428);
#1823=CARTESIAN_POINT('',(0.0,-9.4742,-10.4394));
#1824=AXIS2_PLACEMENT_3D('',#2141,#2142,#2143);
#1825=CARTESIAN_POINT('',(0.0,-9.4742,-10.4394));
#1826=VECTOR('',#2144,0.3592102448428);
#1827=AXIS2_PLACEMENT_3D('',#2145,#2146,#2147);
#1828=CARTESIAN_POINT('',(0.0,2.8321,-12.8778));
#1829=CARTESIAN_POINT('',(0.0,2.8321,-13.3858));
#1830=VECTOR('',#2148,0.508);
#1831=CARTESIAN_POINT('',(0.0,-2.8321,-12.8778));
#1832=AXIS2_PLACEMENT_3D('',#2149,#2150,#2151);
#1833=CARTESIAN_POINT('',(0.0,-2.8321,-13.3858));
#1834=VECTOR('',#2152,0.508);
#1835=AXIS2_PLACEMENT_3D('',#2153,#2154,#2155);
#1836=CARTESIAN_POINT('',(0.0,0.0,-13.3858));
#1837=AXIS2_PLACEMENT_3D('',#2156,#2157,#2158);
#1838=AXIS2_PLACEMENT_3D('',#2159,#2160,#2161);
#1839=CARTESIAN_POINT('',(2.032,-9.4742,-12.2428));
#1840=CARTESIAN_POINT('',(2.032,-5.5372,-12.2428));
#1841=VECTOR('',#2162,3.937);
#1842=CARTESIAN_POINT('',(3.048,-9.4742,-12.2428));
#1843=CARTESIAN_POINT('',(3.048,-9.4742,-12.2428));
#1844=VECTOR('',#2163,1.016);
#1845=CARTESIAN_POINT('',(3.048,-5.5372,-12.2428));
#1846=VECTOR('',#2164,3.937);
#1847=CARTESIAN_POINT('',(3.048,-9.4742,-13.2588));
#1848=CARTESIAN_POINT('',(3.048,-9.4742,-13.2588));
#1849=VECTOR('',#2165,1.016);
#1850=CARTESIAN_POINT('',(3.048,-5.5372,-13.2588));
#1851=VECTOR('',#2166,3.937);
#1852=CARTESIAN_POINT('',(2.032,-9.4742,-13.2588));
#1853=CARTESIAN_POINT('',(2.032,-9.4742,-13.2588));
#1854=VECTOR('',#2167,1.016);
#1855=CARTESIAN_POINT('',(2.032,-5.5372,-13.2588));
#1856=VECTOR('',#2168,3.937);
#1857=CARTESIAN_POINT('',(2.032,-9.4742,-12.2428));
#1858=VECTOR('',#2169,1.016);
#1859=CARTESIAN_POINT('',(3.048,-9.4742,-7.1628));
#1860=CARTESIAN_POINT('',(2.032,-9.4742,-7.1628));
#1861=CARTESIAN_POINT('',(3.048,-9.4742,-7.1628));
#1862=VECTOR('',#2170,1.016);
#1863=CARTESIAN_POINT('',(2.032,-9.4742,-8.1788));
#1864=CARTESIAN_POINT('',(2.032,-9.4742,-7.1628));
#1865=VECTOR('',#2171,1.016);
#1866=CARTESIAN_POINT('',(3.048,-9.4742,-8.1788));
#1867=CARTESIAN_POINT('',(2.032,-9.4742,-8.1788));
#1868=VECTOR('',#2172,1.016);
#1869=CARTESIAN_POINT('',(3.048,-9.4742,-8.1788));
#1870=VECTOR('',#2173,1.016);
#1871=CARTESIAN_POINT('',(-2.032,-9.4742,-8.1788));
#1872=CARTESIAN_POINT('',(-2.032,-9.4742,-7.1628));
#1873=CARTESIAN_POINT('',(-2.032,-9.4742,-8.1788));
#1874=VECTOR('',#2174,1.016);
#1875=CARTESIAN_POINT('',(-3.048,-9.4742,-7.1628));
#1876=CARTESIAN_POINT('',(-2.032,-9.4742,-7.1628));
#1877=VECTOR('',#2175,1.016);
#1878=CARTESIAN_POINT('',(-3.048,-9.4742,-8.1788));
#1879=CARTESIAN_POINT('',(-3.048,-9.4742,-7.1628));
#1880=VECTOR('',#2176,1.016);
#1881=CARTESIAN_POINT('',(-3.048,-9.4742,-8.1788));
#1882=VECTOR('',#2177,1.016);
#1883=CARTESIAN_POINT('',(-3.048,-9.4742,-13.2588));
#1884=CARTESIAN_POINT('',(-2.032,-9.4742,-13.2588));
#1885=CARTESIAN_POINT('',(-3.048,-9.4742,-13.2588));
#1886=VECTOR('',#2178,1.016);
#1887=CARTESIAN_POINT('',(-2.032,-9.4742,-12.2428));
#1888=CARTESIAN_POINT('',(-2.032,-9.4742,-13.2588));
#1889=VECTOR('',#2179,1.016);
#1890=CARTESIAN_POINT('',(-3.048,-9.4742,-12.2428));
#1891=CARTESIAN_POINT('',(-2.032,-9.4742,-12.2428));
#1892=VECTOR('',#2180,1.016);
#1893=CARTESIAN_POINT('',(-3.048,-9.4742,-12.2428));
#1894=VECTOR('',#2181,1.016);
#1895=CARTESIAN_POINT('',(3.048,-5.5372,-7.1628));
#1896=VECTOR('',#2182,3.937);
#1897=CARTESIAN_POINT('',(3.048,-5.5372,-8.1788));
#1898=VECTOR('',#2183,3.937);
#1899=CARTESIAN_POINT('',(2.032,-5.5372,-8.1788));
#1900=VECTOR('',#2184,3.937);
#1901=CARTESIAN_POINT('',(2.032,-5.5372,-7.1628));
#1902=VECTOR('',#2185,3.937);
#1903=CARTESIAN_POINT('',(-2.032,-5.5372,-8.1788));
#1904=VECTOR('',#2186,3.937);
#1905=CARTESIAN_POINT('',(-3.048,-5.5372,-8.1788));
#1906=VECTOR('',#2187,3.937);
#1907=CARTESIAN_POINT('',(-3.048,-5.5372,-7.1628));
#1908=VECTOR('',#2188,3.937);
#1909=CARTESIAN_POINT('',(-2.032,-5.5372,-7.1628));
#1910=VECTOR('',#2189,3.937);
#1911=CARTESIAN_POINT('',(-3.048,-5.5372,-13.2588));
#1912=VECTOR('',#2190,3.937);
#1913=CARTESIAN_POINT('',(-3.048,-5.5372,-12.2428));
#1914=VECTOR('',#2191,3.937);
#1915=CARTESIAN_POINT('',(-2.032,-5.5372,-12.2428));
#1916=VECTOR('',#2192,3.937);
#1917=CARTESIAN_POINT('',(-2.032,-5.5372,-13.2588));
#1918=VECTOR('',#2193,3.937);
#1919=CARTESIAN_POINT('',(0.0,1.0668,-0.127));
#1920=CARTESIAN_POINT('',(0.0,-1.0668,-0.127));
#1921=AXIS2_PLACEMENT_3D('',#2194,#2195,#2196);
#1922=AXIS2_PLACEMENT_3D('',#2197,#2198,#2199);
#1923=CARTESIAN_POINT('',(0.0,-1.0668,-3.5814));
#1924=CARTESIAN_POINT('',(0.0,-1.0668,-0.127));
#1925=VECTOR('',#2200,3.4544);
#1926=CARTESIAN_POINT('',(0.0,1.0668,-3.5814));
#1927=AXIS2_PLACEMENT_3D('',#2201,#2202,#2203);
#1928=CARTESIAN_POINT('',(0.0,1.0668,-0.127));
#1929=VECTOR('',#2204,3.4544);
#1930=AXIS2_PLACEMENT_3D('',#2205,#2206,#2207);
#1931=CARTESIAN_POINT('',(0.0,0.2539999999999,-3.5814));
#1932=CARTESIAN_POINT('',(0.0,-0.2539999999999,-3.5814));
#1933=AXIS2_PLACEMENT_3D('',#2208,#2209,#2210);
#1934=AXIS2_PLACEMENT_3D('',#2211,#2212,#2213);
#1935=CARTESIAN_POINT('',(0.0,-0.2539999999999,-1.5748));
#1936=CARTESIAN_POINT('',(0.0,-0.2539999999999,-3.5814));
#1937=VECTOR('',#2214,2.0066);
#1938=CARTESIAN_POINT('',(0.0,0.2539999999999,-1.5748));
#1939=AXIS2_PLACEMENT_3D('',#2215,#2216,#2217);
#1940=CARTESIAN_POINT('',(0.0,0.2539999999999,-3.5814));
#1941=VECTOR('',#2218,2.0066);
#1942=AXIS2_PLACEMENT_3D('',#2219,#2220,#2221);
#1943=CARTESIAN_POINT('',(0.0,0.127,-0.9398));
#1944=CARTESIAN_POINT('',(0.0,-0.127,-0.9398));
#1945=AXIS2_PLACEMENT_3D('',#2222,#2223,#2224);
#1946=CARTESIAN_POINT('',(0.0,-0.2539999999999,-1.5748));
#1947=VECTOR('',#2225,0.6475754782263);
#1948=CARTESIAN_POINT('',(0.0,0.2539999999999,-1.5748));
#1949=VECTOR('',#2226,0.6475754782263);
#1950=AXIS2_PLACEMENT_3D('',#2227,#2228,#2229);
#1951=CARTESIAN_POINT('',(0.0,0.0,0.0));
#1952=DIRECTION('',(0.0,-0.0,1.0));
#1953=DIRECTION('',(0.0,1.0,0.0));
#1954=DIRECTION('',(0.0,0.0,-1.0));
#1955=CARTESIAN_POINT('',(0.0,0.0,-0.127));
#1956=DIRECTION('',(0.0,-0.0,1.0));
#1957=DIRECTION('',(0.0,1.0,0.0));
#1958=DIRECTION('',(0.0,0.0,-1.0));
#1959=CARTESIAN_POINT('',(0.0,0.0,-0.127));
#1960=DIRECTION('',(0.0,0.0,-1.0));
#1961=DIRECTION('',(0.0,1.0,0.0));
#1962=CARTESIAN_POINT('',(0.0,0.0,0.0));
#1963=DIRECTION('',(0.0,0.0,-1.0));
#1964=DIRECTION('',(0.0,1.0,0.0));
#1965=CARTESIAN_POINT('',(0.0,0.0,0.0));
#1966=DIRECTION('',(0.0,0.0,-1.0));
#1967=DIRECTION('',(0.0,1.0,0.0));
#1968=CARTESIAN_POINT('',(0.0,0.0,0.0));
#1969=DIRECTION('',(0.0,-0.0,1.0));
#1970=DIRECTION('',(0.0,1.0,0.0));
#1971=CARTESIAN_POINT('',(0.0,0.0,-0.3299556788419));
#1972=DIRECTION('',(0.0,-0.0,1.0));
#1973=DIRECTION('',(0.0,1.0,0.0));
#1974=DIRECTION('',(0.0,0.500000000000017,0.866025403784429));
#1975=DIRECTION('',(0.0,-0.500000000000017,0.866025403784429));
#1976=CARTESIAN_POINT('',(0.0,0.0,-0.3299556788419));
#1977=DIRECTION('',(0.0,0.0,-1.0));
#1978=DIRECTION('',(0.0,1.0,0.0));
#1979=DIRECTION('',(0.0,0.0,1.0));
#1980=CARTESIAN_POINT('',(0.0,0.0,-3.0607));
#1981=DIRECTION('',(0.0,0.0,-1.0));
#1982=DIRECTION('',(0.0,1.0,0.0));
#1983=DIRECTION('',(0.0,0.0,1.0));
#1984=CARTESIAN_POINT('',(0.0,0.0,-3.0607));
#1985=DIRECTION('',(0.0,-0.0,1.0));
#1986=DIRECTION('',(0.0,1.0,0.0));
#1987=CARTESIAN_POINT('',(0.0,0.0,-3.2766));
#1988=DIRECTION('',(0.0,-0.0,1.0));
#1989=DIRECTION('',(0.0,1.0,0.0));
#1990=DIRECTION('',(0.0,-0.63570725286069,0.771930235617387));
#1991=DIRECTION('',(0.0,0.63570725286069,0.771930235617387));
#1992=CARTESIAN_POINT('',(0.0,0.0,-3.2766));
#1993=DIRECTION('',(0.0,0.0,-1.0));
#1994=DIRECTION('',(0.0,1.0,0.0));
#1995=DIRECTION('',(0.0,0.0,1.0));
#1996=CARTESIAN_POINT('',(0.0,0.0,-3.6322));
#1997=DIRECTION('',(0.0,0.0,-1.0));
#1998=DIRECTION('',(0.0,1.0,0.0));
#1999=DIRECTION('',(0.0,0.0,1.0));
#2000=CARTESIAN_POINT('',(0.0,0.0,-3.6322));
#2001=DIRECTION('',(0.0,-0.0,1.0));
#2002=DIRECTION('',(0.0,1.0,0.0));
#2003=CARTESIAN_POINT('',(0.0,0.0,-3.8481));
#2004=DIRECTION('',(0.0,-0.0,1.0));
#2005=DIRECTION('',(0.0,1.0,0.0));
#2006=DIRECTION('',(0.0,0.63570725286069,0.771930235617387));
#2007=DIRECTION('',(0.0,-0.63570725286069,0.771930235617387));
#2008=CARTESIAN_POINT('',(0.0,0.0,-3.8481));
#2009=DIRECTION('',(0.0,0.0,-1.0));
#2010=DIRECTION('',(0.0,1.0,0.0));
#2011=DIRECTION('',(0.0,0.0,1.0));
#2012=CARTESIAN_POINT('',(0.0,0.0,-6.1468));
#2013=DIRECTION('',(0.0,0.0,-1.0));
#2014=DIRECTION('',(0.0,1.0,0.0));
#2015=DIRECTION('',(0.0,0.0,1.0));
#2016=CARTESIAN_POINT('',(0.0,0.0,-6.1468));
#2017=DIRECTION('',(0.0,-0.0,1.0));
#2018=DIRECTION('',(0.0,1.0,0.0));
#2019=CARTESIAN_POINT('',(0.0,0.0,-6.1468));
#2020=DIRECTION('',(0.0,0.0,-1.0));
#2021=DIRECTION('',(0.0,1.0,0.0));
#2022=CARTESIAN_POINT('',(0.0,0.0,-6.1468));
#2023=DIRECTION('',(0.0,-0.0,1.0));
#2024=DIRECTION('',(0.0,1.0,0.0));
#2025=CARTESIAN_POINT('',(0.0,0.0,-7.0358));
#2026=DIRECTION('',(0.0,0.0,1.0));
#2027=DIRECTION('',(-1.0,0.0,0.0));
#2028=DIRECTION('',(0.0,0.0,1.0));
#2029=DIRECTION('',(0.0,0.0,1.0));
#2030=CARTESIAN_POINT('',(0.0,0.0,-7.0358));
#2031=DIRECTION('',(0.0,-0.0,1.0));
#2032=DIRECTION('',(0.0,1.0,0.0));
#2033=DIRECTION('',(1.0,0.0,0.0));
#2034=DIRECTION('',(0.0,1.0,0.0));
#2035=DIRECTION('',(0.0,-1.0,0.0));
#2036=DIRECTION('',(1.0,0.0,0.0));
#2037=CARTESIAN_POINT('',(0.0,0.0,-7.0358));
#2038=DIRECTION('',(0.0,0.0,1.0));
#2039=DIRECTION('',(1.0,0.0,0.0));
#2040=CARTESIAN_POINT('',(0.0,0.0,-7.0358));
#2041=DIRECTION('',(0.0,0.0,1.0));
#2042=DIRECTION('',(0.0,-1.0,0.0));
#2043=DIRECTION('',(0.0,1.0,0.0));
#2044=DIRECTION('',(-1.0,0.0,0.0));
#2045=DIRECTION('',(0.0,-1.0,0.0));
#2046=DIRECTION('',(-1.0,0.0,0.0));
#2047=DIRECTION('',(0.0,-1.0,0.0));
#2048=DIRECTION('',(-1.0,0.0,0.0));
#2049=DIRECTION('',(0.0,-1.0,0.0));
#2050=DIRECTION('',(0.0,0.0,-1.0));
#2051=DIRECTION('',(0.0,1.0,0.0));
#2052=DIRECTION('',(0.0,0.0,-1.0));
#2053=DIRECTION('',(0.0,-1.0,0.0));
#2054=DIRECTION('',(0.0,0.0,-1.0));
#2055=DIRECTION('',(0.0,-1.0,0.0));
#2056=DIRECTION('',(0.0,0.0,-1.0));
#2057=DIRECTION('',(0.0,0.0,1.0));
#2058=DIRECTION('',(-1.0,0.0,0.0));
#2059=DIRECTION('',(1.0,0.0,0.0));
#2060=DIRECTION('',(-1.0,0.0,0.0));
#2061=DIRECTION('',(0.0,0.0,1.0));
#2062=DIRECTION('',(1.0,0.0,0.0));
#2063=DIRECTION('',(0.0,0.0,-1.0));
#2064=DIRECTION('',(-1.0,0.0,0.0));
#2065=DIRECTION('',(0.0,0.0,-1.0));
#2066=DIRECTION('',(1.0,0.0,0.0));
#2067=DIRECTION('',(0.0,0.0,1.0));
#2068=DIRECTION('',(0.0,0.0,1.0));
#2069=DIRECTION('',(1.0,0.0,0.0));
#2070=DIRECTION('',(0.0,0.0,-1.0));
#2071=DIRECTION('',(-1.0,0.0,0.0));
#2072=DIRECTION('',(1.0,0.0,0.0));
#2073=DIRECTION('',(0.0,0.0,1.0));
#2074=DIRECTION('',(0.0,0.0,-1.0));
#2075=DIRECTION('',(-1.0,0.0,0.0));
#2076=DIRECTION('',(0.0,0.0,1.0));
#2077=DIRECTION('',(1.0,0.0,0.0));
#2078=DIRECTION('',(0.0,0.0,-1.0));
#2079=DIRECTION('',(1.0,0.0,0.0));
#2080=DIRECTION('',(0.0,0.0,1.0));
#2081=DIRECTION('',(1.0,0.0,0.0));
#2082=DIRECTION('',(0.0,0.0,-1.0));
#2083=DIRECTION('',(-1.0,0.0,0.0));
#2084=DIRECTION('',(0.0,0.0,1.0));
#2085=DIRECTION('',(0.0,-1.0,0.0));
#2086=DIRECTION('',(1.0,0.0,0.0));
#2087=DIRECTION('',(0.0,-1.0,0.0));
#2088=DIRECTION('',(0.0,-1.0,0.0));
#2089=DIRECTION('',(-1.0,0.0,0.0));
#2090=CARTESIAN_POINT('',(0.0,0.0,-13.3858));
#2091=DIRECTION('',(0.0,0.0,1.0));
#2092=DIRECTION('',(0.0,-1.0,0.0));
#2093=CARTESIAN_POINT('',(0.0,0.0,-13.3858));
#2094=DIRECTION('',(0.0,-0.0,1.0));
#2095=DIRECTION('',(0.0,1.0,0.0));
#2096=DIRECTION('',(0.0,0.0,1.0));
#2097=DIRECTION('',(-1.0,0.0,0.0));
#2098=DIRECTION('',(0.0,0.0,-1.0));
#2099=DIRECTION('',(-1.0,0.0,0.0));
#2100=DIRECTION('',(0.0,0.0,-1.0));
#2101=DIRECTION('',(0.0,0.0,-1.0));
#2102=DIRECTION('',(1.0,0.0,0.0));
#2103=DIRECTION('',(1.0,0.0,0.0));
#2104=DIRECTION('',(0.0,0.0,1.0));
#2105=CARTESIAN_POINT('',(0.0,-4.9022,-10.2108));
#2106=DIRECTION('',(0.0,-1.0,0.0));
#2107=DIRECTION('',(0.0,0.0,1.0));
#2108=CARTESIAN_POINT('',(0.0,-4.9022,-10.2108));
#2109=DIRECTION('',(0.0,-1.0,0.0));
#2110=DIRECTION('',(0.0,0.0,-1.0));
#2111=DIRECTION('',(0.0,-1.0,0.0));
#2112=DIRECTION('',(0.0,-1.0,0.0));
#2113=DIRECTION('',(0.0,-1.0,0.0));
#2114=DIRECTION('',(0.0,-1.0,0.0));
#2115=DIRECTION('',(0.0,-1.0,0.0));
#2116=DIRECTION('',(0.0,0.0,-1.0));
#2117=DIRECTION('',(0.0,-1.0,0.0));
#2118=DIRECTION('',(0.0,1.0,0.0));
#2119=CARTESIAN_POINT('',(0.0,-4.8514,-10.2108));
#2120=DIRECTION('',(0.0,1.0,0.0));
#2121=DIRECTION('',(0.0,0.0,1.0));
#2122=DIRECTION('',(0.0,1.0,0.0));
#2123=CARTESIAN_POINT('',(0.0,-4.8514,-10.2108));
#2124=DIRECTION('',(0.0,-1.0,0.0));
#2125=DIRECTION('',(0.0,0.0,1.0));
#2126=CARTESIAN_POINT('',(0.0,-4.8514,-10.2108));
#2127=DIRECTION('',(0.0,1.0,0.0));
#2128=DIRECTION('',(0.0,0.0,1.0));
#2129=CARTESIAN_POINT('',(0.0,-4.8514,-10.2108));
#2130=DIRECTION('',(0.0,1.0,0.0));
#2131=DIRECTION('',(0.0,0.0,-1.0));
#2132=CARTESIAN_POINT('',(0.0,-9.2202,-10.2108));
#2133=DIRECTION('',(0.0,1.0,0.0));
#2134=DIRECTION('',(0.0,0.0,-1.0));
#2135=DIRECTION('',(0.0,1.0,0.0));
#2136=DIRECTION('',(0.0,1.0,0.0));
#2137=CARTESIAN_POINT('',(0.0,-9.2202,-10.2108));
#2138=DIRECTION('',(0.0,-1.0,0.0));
#2139=DIRECTION('',(0.0,0.0,-1.0));
#2140=DIRECTION('',(0.0,0.707106781186548,0.707106781186548));
#2141=CARTESIAN_POINT('',(0.0,-9.4742,-10.2108));
#2142=DIRECTION('',(0.0,-1.0,0.0));
#2143=DIRECTION('',(0.0,0.0,-1.0));
#2144=DIRECTION('',(0.0,0.707106781186498,-0.707106781186598));
#2145=CARTESIAN_POINT('',(0.0,-9.4742,-10.2108));
#2146=DIRECTION('',(0.0,1.0,0.0));
#2147=DIRECTION('',(0.0,0.0,-1.0));
#2148=DIRECTION('',(0.0,0.0,1.0));
#2149=CARTESIAN_POINT('',(0.0,0.0,-12.8778));
#2150=DIRECTION('',(0.0,0.0,-1.0));
#2151=DIRECTION('',(0.0,-1.0,0.0));
#2152=DIRECTION('',(0.0,0.0,1.0));
#2153=CARTESIAN_POINT('',(0.0,0.0,-12.8778));
#2154=DIRECTION('',(0.0,0.0,1.0));
#2155=DIRECTION('',(0.0,-1.0,0.0));
#2156=CARTESIAN_POINT('',(0.0,0.0,-5.23732125));
#2157=DIRECTION('',(-1.0,0.0,0.0));
#2158=DIRECTION('',(0.0,0.0,-1.0));
#2159=CARTESIAN_POINT('',(0.0,0.0,-5.23732125));
#2160=DIRECTION('',(1.0,0.0,0.0));
#2161=DIRECTION('',(0.0,0.0,-1.0));
#2162=DIRECTION('',(0.0,-1.0,0.0));
#2163=DIRECTION('',(-1.0,0.0,0.0));
#2164=DIRECTION('',(0.0,-1.0,0.0));
#2165=DIRECTION('',(0.0,0.0,1.0));
#2166=DIRECTION('',(0.0,-1.0,0.0));
#2167=DIRECTION('',(1.0,0.0,0.0));
#2168=DIRECTION('',(0.0,-1.0,0.0));
#2169=DIRECTION('',(0.0,0.0,-1.0));
#2170=DIRECTION('',(-1.0,0.0,0.0));
#2171=DIRECTION('',(0.0,0.0,-1.0));
#2172=DIRECTION('',(1.0,0.0,0.0));
#2173=DIRECTION('',(0.0,0.0,1.0));
#2174=DIRECTION('',(0.0,0.0,1.0));
#2175=DIRECTION('',(-1.0,0.0,0.0));
#2176=DIRECTION('',(0.0,0.0,-1.0));
#2177=DIRECTION('',(1.0,0.0,0.0));
#2178=DIRECTION('',(1.0,0.0,0.0));
#2179=DIRECTION('',(0.0,0.0,1.0));
#2180=DIRECTION('',(-1.0,0.0,0.0));
#2181=DIRECTION('',(0.0,0.0,-1.0));
#2182=DIRECTION('',(0.0,-1.0,0.0));
#2183=DIRECTION('',(0.0,-1.0,0.0));
#2184=DIRECTION('',(0.0,-1.0,0.0));
#2185=DIRECTION('',(0.0,-1.0,0.0));
#2186=DIRECTION('',(0.0,-1.0,0.0));
#2187=DIRECTION('',(0.0,-1.0,0.0));
#2188=DIRECTION('',(0.0,-1.0,0.0));
#2189=DIRECTION('',(0.0,-1.0,0.0));
#2190=DIRECTION('',(0.0,-1.0,0.0));
#2191=DIRECTION('',(0.0,-1.0,0.0));
#2192=DIRECTION('',(0.0,-1.0,0.0));
#2193=DIRECTION('',(0.0,-1.0,0.0));
#2194=CARTESIAN_POINT('',(0.0,0.0,-0.127));
#2195=DIRECTION('',(0.0,0.0,-1.0));
#2196=DIRECTION('',(0.0,1.0,0.0));
#2197=CARTESIAN_POINT('',(0.0,0.0,-0.127));
#2198=DIRECTION('',(0.0,-0.0,1.0));
#2199=DIRECTION('',(0.0,1.0,0.0));
#2200=DIRECTION('',(0.0,0.0,-1.0));
#2201=CARTESIAN_POINT('',(0.0,0.0,-3.5814));
#2202=DIRECTION('',(0.0,-0.0,1.0));
#2203=DIRECTION('',(0.0,1.0,0.0));
#2204=DIRECTION('',(0.0,0.0,-1.0));
#2205=CARTESIAN_POINT('',(0.0,0.0,-3.5814));
#2206=DIRECTION('',(0.0,0.0,-1.0));
#2207=DIRECTION('',(0.0,1.0,0.0));
#2208=CARTESIAN_POINT('',(0.0,0.0,-3.5814));
#2209=DIRECTION('',(0.0,0.0,-1.0));
#2210=DIRECTION('',(0.0,1.0,0.0));
#2211=CARTESIAN_POINT('',(0.0,0.0,-3.5814));
#2212=DIRECTION('',(0.0,-0.0,1.0));
#2213=DIRECTION('',(0.0,1.0,0.0));
#2214=DIRECTION('',(0.0,0.0,1.0));
#2215=CARTESIAN_POINT('',(0.0,0.0,-1.5748));
#2216=DIRECTION('',(0.0,-0.0,1.0));
#2217=DIRECTION('',(0.0,1.0,0.0));
#2218=DIRECTION('',(0.0,0.0,1.0));
#2219=CARTESIAN_POINT('',(0.0,0.0,-1.5748));
#2220=DIRECTION('',(0.0,0.0,-1.0));
#2221=DIRECTION('',(0.0,1.0,0.0));
#2222=CARTESIAN_POINT('',(0.0,0.0,-0.9398));
#2223=DIRECTION('',(0.0,0.0,-1.0));
#2224=DIRECTION('',(0.0,1.0,0.0));
#2225=DIRECTION('',(0.0,0.196116135138107,0.980580675690936));
#2226=DIRECTION('',(0.0,-0.196116135138107,0.980580675690936));
#2227=CARTESIAN_POINT('',(0.0,0.0,-0.9398));
#2228=DIRECTION('',(0.0,-0.0,1.0));
#2229=DIRECTION('',(0.0,1.0,0.0));
ENDSEC;
END-ISO-10303-21;
